<svg xmlns="http://www.w3.org/2000/svg" viewBox="0 0 64 80" x="0px" y="0px"><title>Kitten_1</title><g data-name="Layer 2"><path d="M24.49,52.43a.88.88,0,0,0-.84-1.13h-.91a3,3,0,0,0-2.4,1.17,1.94,1.94,0,0,0,.18,3l2.67,2A3.06,3.06,0,0,0,25,58h.36a.38.38,0,0,0,.34-.55L24.4,54.85a2.26,2.26,0,0,1-.14-1.66Z"/><path d="M54,49.79a2,2,0,0,1-1.1-1.41l-.64-3.33a.6.6,0,0,0-1.11-.21l-1.23,2a3.91,3.91,0,0,0,1,5.26l3.35,2.39a1.1,1.1,0,0,0,.64.2h1V52.46A2.75,2.75,0,0,0,54.42,50Z"/><path d="M4.29,32.6a8,8,0,0,0,5.63,7A3,3,0,0,1,12,42.41l.06,5.69a4.65,4.65,0,0,1-1.47,3.34,3.87,3.87,0,0,0-1,1.53L8.2,57.46a.45.45,0,0,0,.43.59h0a3.22,3.22,0,0,0,2.28-.94L13.05,55a8.25,8.25,0,0,1,2.14-1.54l1.81-.9a5.27,5.27,0,0,0,1.7-1.35l0,0A4.12,4.12,0,0,1,22,49.67L37.06,50a4.87,4.87,0,0,1,4.26,2.69l2.23,4.45A1.65,1.65,0,0,0,45,58,1.07,1.07,0,0,0,46,57l.16-3.43a21.31,21.31,0,0,1,2.71-9.43l2.74-4.88a5.49,5.49,0,0,1,2-2.06,4.6,4.6,0,0,0,2.3-4V21.73a.75.75,0,0,0-1.25-.56L52,23.65a2.5,2.5,0,0,1-2.57.41,4.09,4.09,0,0,0-2.84,0A2.5,2.5,0,0,1,44,23.65l-2.76-2.48a.75.75,0,0,0-1.25.56V33.25A4.59,4.59,0,0,0,40.33,35a.8.8,0,0,1-.74,1.11l-12.85.07-9.26-.07.09,0h-5.3a4,4,0,0,1-.15-8,4.42,4.42,0,0,1,4.23,2.72A2.68,2.68,0,0,0,18,32.38,1.84,1.84,0,0,0,20.32,30a8.43,8.43,0,0,0-8.05-6A8,8,0,0,0,4.29,32.6Z"/></g><text x="0" y="79" fill="#000000" font-size="5px" font-weight="bold" font-family="'Helvetica Neue', Helvetica, Arial-Unicode, Arial, Sans-serif">Created by Roundicons.com</text><text x="0" y="84" fill="#000000" font-size="5px" font-weight="bold" font-family="'Helvetica Neue', Helvetica, Arial-Unicode, Arial, Sans-serif">from the Noun Project</text></svg>