<svg xmlns="http://www.w3.org/2000/svg" version="1.1" viewBox="-5.0 -10.0 110.0 135.0">
 <path d="m64.062 51.562c0 2.5859-1.75 4.6875-3.9062 4.6875s-3.9062-2.1016-3.9062-4.6875 1.75-4.6875 3.9062-4.6875 3.9062 2.1016 3.9062 4.6875zm-24.219-4.6875c-2.1562 0-3.9062 2.1016-3.9062 4.6875s1.75 4.6875 3.9062 4.6875 3.9062-2.1016 3.9062-4.6875-1.75-4.6875-3.9062-4.6875zm10.156 26.105c6.9844 0 9.375-7.3555 9.375-7.3555h-18.75s2.6484 7.3555 9.375 7.3555zm37.5-18.133c0 6.0156-2.8008 14.805-10.367 16.211-6.1211 10.914-15.242 16.441-27.133 16.441-11.895 0-21.012-5.5273-27.133-16.438-7.5664-1.4102-10.367-10.195-10.367-16.215 0-6.7109 2.5273-12.789 8.8828-13.195 1.4141-15.934 12.332-26.023 28.617-26.023s27.199 10.09 28.617 26.027c6.3633 0.40234 8.8828 6.4766 8.8828 13.195zm-8.2227-6.6133c-0.85156-0.55469-1.9219-0.32422-2.3633-0.12891-2.0664 0.91406-4.3945-0.59766-4.3945-2.8555 0-4.1992-0.98438-15.648-10.812-20.793 4.0742 4.2305 5.4766 11.852 5.4766 16.168h-39.352c-0.28125 1.8789-0.35938 3.5117-0.35938 4.625 0 2.2578-2.3281 3.7734-4.3945 2.8555-0.44531-0.19531-1.5117-0.42969-2.3633 0.12891-3.4453 2.2383-2.4922 16.645 4.1797 16.773 1.1484 0.023438 2.1953 0.67578 2.7188 1.6953 7.4727 14.547 18.691 14.547 22.383 14.547s14.91 0 22.383-14.547c0.52344-1.0234 1.5703-1.6758 2.7188-1.6953 6.668-0.13281 7.625-14.535 4.1797-16.773zm-1.9336-21.086c11.867-3.4141 1.1719 22.957 22.656 22.852-7.082-4.5898-2.7891-17.113-4.6875-25.52-1.6172-7.1641-7.2734-8.8555-10.938-8.8555-5.8594 0-9.707 3.457-11.258 6.0078 1.6992 1.4922 3.168 3.8242 4.2266 5.5156zm-50.461-5.5156c-1.5547-2.5508-5.3984-6.0078-11.258-6.0078-3.6641 0-9.3203 1.6914-10.938 8.8555-1.8984 8.4062 2.3945 20.93-4.6875 25.52 21.484 0.10156 10.789-26.27 22.656-22.852 1.0586-1.6914 2.5273-4.0234 4.2266-5.5156z"/>
<text x="0.0" y="117.5" font-size="5.0" font-weight="bold" font-family="Arbeit Regular, Helvetica, Arial-Unicode, Arial, Sans-serif" fill="#000000">Created by jin seung lee</text><text x="0.0" y="122.5" font-size="5.0" font-weight="bold" font-family="Arbeit Regular, Helvetica, Arial-Unicode, Arial, Sans-serif" fill="#000000">from Noun Project</text></svg>