<svg xmlns="http://www.w3.org/2000/svg" viewBox="0 0 32 40" x="0px" y="0px"><title>Box</title><g><path d="M30,9.0025v14a1.0083,1.0083,0,0,1-.71.96l-13,4a1.0712,1.0712,0,0,1-.58,0l-13-4a1.0083,1.0083,0,0,1-.71-.96v-14a1.0083,1.0083,0,0,1,.71-.96l13-4a.9569.9569,0,0,1,.58,0l5.77,1.77-12.38,4.24a1,1,0,0,0-.68.95v7a1,1,0,0,0,2,0v-6.29l14.3-4.9,3.99,1.23A1.0083,1.0083,0,0,1,30,9.0025Z"/></g><text x="0" y="47" fill="#000000" font-size="5px" font-weight="bold" font-family="'Helvetica Neue', Helvetica, Arial-Unicode, Arial, Sans-serif">Created by Rizsign</text><text x="0" y="52" fill="#000000" font-size="5px" font-weight="bold" font-family="'Helvetica Neue', Helvetica, Arial-Unicode, Arial, Sans-serif">from the Noun Project</text></svg>