<svg xmlns="http://www.w3.org/2000/svg" version="1.1" viewBox="-5.0 -10.0 110.0 135.0">
 <path d="m6.25 65.625c0-1.7266 1.3984-3.125 3.125-3.125h0.035156 2.0508c1.3477 0 2.6641 0.4375 3.75 1.25l6.1406 4.6094c2.1641 1.6172 5.1328 1.6172 7.2969 0l1.4531-1.0938c4.3867-3.2891 10.41-3.2891 14.797 0l1.4531 1.0938c2.1641 1.6172 5.1328 1.6172 7.2969 0l1.4531-1.0938c4.3867-3.2891 10.41-3.2891 14.797 0l1.4531 1.0938c2.1641 1.6172 5.1328 1.6172 7.2969 0l5.3125-3.9844c1.6211-1.2148 3.5938-1.875 5.625-1.875h1.0273c0.59766 0 1.0195 0.13281 1.3047 0.35547 0.99609 0.52344 1.6758 1.5664 1.6758 2.7695 0 1.6719-1.3164 3.0391-2.9688 3.1211l-1.0391 0.003906c-0.67969 0-1.3359 0.21875-1.875 0.625l-5.3125 3.9844c-4.3867 3.2891-10.41 3.2891-14.797 0l-1.4531-1.0938c-2.1641-1.6172-5.1328-1.6172-7.2969 0l-1.4531 1.0938c-4.3867 3.2891-10.41 3.2891-14.797 0l-1.4531-1.0938c-2.1641-1.6172-5.1328-1.6172-7.2969 0l-1.4531 1.0938c-4.3867 3.2891-10.41 3.2891-14.797 0l-6.1406-4.6094h-2.0859c-1.7266 0-3.125-1.3984-3.125-3.125zm0 17.926c0-1.7266 1.3984-3.125 3.125-3.125h0.035156 2.0508c1.3477 0 2.6641 0.44141 3.75 1.25l6.1406 4.6094c2.1641 1.6211 5.1328 1.6211 7.2969 0l1.4531-1.0938c4.3867-3.2891 10.41-3.2891 14.797 0l1.4531 1.0938c2.1641 1.6211 5.1328 1.6211 7.2969 0l1.4531-1.0938c4.3867-3.2891 10.41-3.2891 14.797 0l1.4531 1.0938c2.1641 1.6211 5.1328 1.6211 7.2969 0l5.3125-3.9844c1.6211-1.2148 3.5938-1.875 5.625-1.875h1.0273c0.59766 0 1.0195 0.12891 1.3047 0.35547 0.99609 0.52344 1.6758 1.5703 1.6758 2.7695 0 1.6719-1.3164 3.0391-2.9688 3.125h-1.0391c-0.67969 0-1.3359 0.21875-1.875 0.625l-5.3125 3.9844c-4.3867 3.2852-10.41 3.2852-14.797 0l-1.4531-1.0938c-2.1641-1.6211-5.1328-1.6211-7.2969 0l-1.4531 1.0938c-4.3867 3.2852-10.41 3.2852-14.797 0l-1.4531-1.0938c-2.1641-1.6211-5.1328-1.6211-7.2969 0l-1.4531 1.0938c-4.3867 3.2852-10.41 3.2852-14.797 0l-6.1406-4.6094h-2.0859c-1.7266 0-3.125-1.4023-3.125-3.125zm45.719-76.602s6.5391 5.2969 11.77 13.133c3.625 5.4336 6.5742 12.062 6.5742 18.98 0 11.211-9.1016 20.312-20.312 20.312s-20.312-9.1016-20.312-20.312c0-6.918 2.9492-13.547 6.5742-18.98 5.2305-7.8359 11.77-13.133 11.77-13.133 1.1484-0.93359 2.7891-0.93359 3.9375 0z" fill-rule="evenodd"/>
<text x="0.0" y="117.5" font-size="5.0" font-weight="bold" font-family="Arbeit Regular, Helvetica, Arial-Unicode, Arial, Sans-serif" fill="#000000">Created by Yudhi Restu Pebriyanto</text><text x="0.0" y="122.5" font-size="5.0" font-weight="bold" font-family="Arbeit Regular, Helvetica, Arial-Unicode, Arial, Sans-serif" fill="#000000">from Noun Project</text></svg>