<svg xmlns="http://www.w3.org/2000/svg" version="1.1" viewBox="-5.0 -10.0 110.0 135.0">
 <path d="m16.977 45.117-6.0977-0.76563c-2.1484-0.26953-4.0078-1.6289-4.9062-3.5977-0.90234-1.9688-0.71875-4.2656 0.48047-6.0703l7.8672-11.793c1.2656 7.4023 2.1445 14.812 2.6562 22.227zm68.68-22.266 7.8906 11.832c1.1992 1.8047 1.3828 4.1016 0.48047 6.0703-0.89844 1.9688-2.7578 3.3281-4.9062 3.5977l-6.1797 0.77344c0.51172-7.4219 1.4102-14.848 2.7148-22.273zm-45.031-16.602h18.75v9.375c0 1.6367-0.98438 3.0547-2.4141 4.1289-1.7812 1.332-4.25 2.1211-6.9609 2.1211s-5.1797-0.78906-6.9609-2.1211c-1.4297-1.0742-2.4141-2.4922-2.4141-4.1289zm25 0.5625 6.9805 1.3984c5.0508 1.0078 8.3398 5.9062 7.3711 10.949-4.0273 21.422-4.7695 42.84-2.6484 64.246 0.27344 2.6367-0.58594 5.2695-2.3594 7.2422-1.7734 1.9688-4.3047 3.0938-6.957 3.0938-9.5352 0.007812-26.52 0.007812-36.047 0.007812-2.6484 0-5.1758-1.1211-6.9531-3.0859-1.7773-1.9688-2.6367-4.5938-2.375-7.2188 2.0664-21.438 1.293-42.879-2.6367-64.301-0.94922-5.0469 2.3359-9.918 7.3633-10.922 2.4414-0.49219 5.1172-1.0312 7.0117-1.4102v8.8125c0 6.625 6.7891 12.5 15.625 12.5s15.625-5.875 15.625-12.5z" fill-rule="evenodd"/>
<text x="0.0" y="117.5" font-size="5.0" font-weight="bold" font-family="Arbeit Regular, Helvetica, Arial-Unicode, Arial, Sans-serif" fill="#000000">Created by Yudhi Restu Pebriyanto</text><text x="0.0" y="122.5" font-size="5.0" font-weight="bold" font-family="Arbeit Regular, Helvetica, Arial-Unicode, Arial, Sans-serif" fill="#000000">from Noun Project</text></svg>