<svg xmlns="http://www.w3.org/2000/svg" version="1.1" viewBox="-5.0 -10.0 110.0 135.0">
 <path d="m46.75 9.5977c-0.34375-0.14453-0.6875-0.27734-1.0312-0.40234 0.52344-1.875 2.2461-3.2578 4.2812-3.2578s3.7617 1.3867 4.2812 3.2578c-0.34375 0.125-0.6875 0.25781-1.0312 0.40234-1.0312 0.4375-2.1328 0.65625-3.25 0.65625s-2.2188-0.21875-3.25-0.65625zm45.09 34.988c-0.13281 0.49219-0.32422 0.98047-0.58594 1.457-1.5625 2.8398-4.8125 3.9375-7.8711 3.125-0.13281-0.035157-0.26562-0.074219-0.39844-0.11719-0.023437 0.10547-0.046875 0.21094-0.074219 0.3125-0.76562 3.0039-3.1719 5.2812-6.3477 5.3477-0.40625 0.007812-0.80469-0.019532-1.1914-0.082032-13.07 3.7734-26.777 4.5703-40.117 2.3906l-15.816 9.125c8.1797 2.7617 18.871 4.4336 30.566 4.4336 25.723 0 46.574-8.082 46.574-18.051 0-2.8477-1.7031-5.543-4.7383-7.9375zm-71.355-6.0234c-10.414 3.3086-17.059 8.3359-17.059 13.965 0 1.8945 0.75781 3.7227 2.1523 5.4414l14.902-8.6055v-10.797zm40.445 5.8516c-0.52734-2.2969 0.26562-4.7266 2.0078-6.4727 0.097656-0.097656 0.19922-0.19531 0.30078-0.28906-0.078125-0.070313-0.15625-0.14453-0.23438-0.21875-2.2148-2.1602-2.9883-5.3867-1.457-8.1719 1.5625-2.8398 4.8125-3.9375 7.8711-3.125 0.13281 0.035156 0.26562 0.074219 0.39844 0.11719 0.023438-0.10547 0.046875-0.20703 0.074219-0.3125 0.68359-2.6758 2.6641-4.7734 5.3359-5.2461-1.1758-2.7617-3.1602-5.125-5.8477-6.9062-4.5703-3.0273-9.8945-3.5234-14.941-1.3867-1.3633 0.57812-2.8633 0.89453-4.4336 0.89453-1.5742 0-3.0703-0.32031-4.4336-0.89453-5.0469-2.1367-10.371-1.6406-14.941 1.3867-4.5703 3.0273-7.0977 7.7383-7.0977 13.223v13.906l0.91016 0.28516c11.844 3.7188 24.297 4.7891 36.492 3.2148zm-38.316 9.6055-2.668-0.83594-12.129 7.0039v29.293l3.2617-1.625 4.6758 6.2109v-29.309l14.93-8.6133c-2.7109-0.58594-5.4023-1.293-8.0664-2.125zm48.938-1.5117c-0.75781-0.84766-1.3242-1.8945-1.6367-3.0508-0.035156-0.13281-0.070312-0.26953-0.097656-0.40234-0.10156 0.03125-0.20312 0.0625-0.30859 0.09375-2.5977 0.73047-5.3438 0.10937-7.0977-1.8633-12.98 1.8398-26.266 0.78125-38.891-3.1836v7.0156c15.605 4.8984 32.23 5.3633 48.027 1.3906zm7.2891-19.223c8.6289-11.496 16.43 3.1367 2.5625 4.3008 14.27 1.7266 5.4922 15.797-2.4492 4.3672 5.6445 13.223-10.93 12.66-5.0039 0.066406-8.6289 11.496-16.43-3.1367-2.5625-4.3008-14.266-1.7266-5.4922-15.797 2.4492-4.3672-5.6445-13.219 10.93-12.66 5.0039-0.066406zm-2.4453 0.74609c-0.70312 0-1.3594 0.20312-1.9141 0.55078-1.0234 0.64062-1.7031 1.7734-1.7031 3.0664v0.054687c0 0.046875 0 0.09375 0.003906 0.13672 0.054688 1.25 0.80469 2.4062 1.9023 2.9961 0.51172 0.27344 1.0898 0.42969 1.7109 0.42969 0.70312 0 1.3594-0.20312 1.9141-0.55078 1.0234-0.64062 1.7031-1.7734 1.7031-3.0664v-0.050782c0-0.046875 0-0.09375-0.003907-0.14453-0.054687-1.25-0.80469-2.4062-1.9023-2.9961-0.51172-0.27344-1.0938-0.43359-1.7148-0.43359z" fill-rule="evenodd"/>
<text x="0.0" y="117.5" font-size="5.0" font-weight="bold" font-family="Arbeit Regular, Helvetica, Arial-Unicode, Arial, Sans-serif" fill="#000000">Created by Nabil Ardiansyah</text><text x="0.0" y="122.5" font-size="5.0" font-weight="bold" font-family="Arbeit Regular, Helvetica, Arial-Unicode, Arial, Sans-serif" fill="#000000">from Noun Project</text></svg>