<svg xmlns="http://www.w3.org/2000/svg" xmlns:xlink="http://www.w3.org/1999/xlink" version="1.1" x="0px" y="0px" viewBox="0 0 100 125" style="enable-background:new 0 0 100 100;" xml:space="preserve"><g><path d="M81.68,65.6l-0.87-14.4c3.66-2.11,5.82-4.6,5.82-7.24c0-3.99-5.25-7.96-13.83-10.57c0.17,0.65,0.31,1.3,0.42,1.97   c0.75,1.21,1.11,2.49,1.11,3.78c0,6.3-8.54,11.31-20.75,12.17c-1.17,0.08-2.37,0.12-3.58,0.12c-1.2,0-2.41-0.05-3.58-0.12   c-12.21-0.86-20.75-5.87-20.75-12.17c0-1.29,0.36-2.57,1.11-3.78c0.11-0.67,0.25-1.32,0.42-1.97C18.62,36,13.37,39.97,13.37,43.96   c0,2.64,2.15,5.13,5.82,7.24l-0.87,14.4c-3.28,0.25-5.75,1.99-5.75,4.16c0,2.35,2.88,4.2,6.56,4.2c3.68,0,6.56-1.84,6.56-4.2   c0-1.67-1.46-3.08-3.62-3.76l5.43-11.4c4.74,1.4,10.38,2.37,16.48,2.77l3.94,16.27c-2.63,0.56-4.48,2.16-4.48,4.1   c0,2.42,2.88,4.31,6.56,4.31c3.68,0,6.56-1.89,6.56-4.31c0-1.9-1.78-3.47-4.33-4.06l4.58-16.36c5.8-0.42,11.16-1.38,15.69-2.71   L77.93,66c-2.16,0.68-3.62,2.09-3.62,3.76c0,2.35,2.88,4.2,6.56,4.2c3.68,0,6.56-1.84,6.56-4.2C87.43,67.58,84.97,65.85,81.68,65.6   z M17.6,42.98c0-1.05,1.21-1.86,2.76-1.86s2.76,0.82,2.76,1.86s-1.21,1.86-2.76,1.86S17.6,44.02,17.6,42.98z M20.51,64.36   l0.73-12.09c1.28,0.61,2.69,1.18,4.23,1.7L20.51,64.36z M50,52.07c1.55,0,2.76,0.82,2.76,1.86c0,1.05-1.21,1.86-2.76,1.86   s-2.76-0.82-2.76-1.86C47.24,52.89,48.45,52.07,50,52.07z M50.11,73.43c-0.02,0-0.04,0-0.06,0l-3.86-15.94   c1.26,0.05,2.53,0.08,3.82,0.08c1.55,0,3.07-0.04,4.58-0.12L50.11,73.43z M74.53,53.96c1.53-0.52,2.94-1.09,4.23-1.7l0.73,12.09   L74.53,53.96z M77.49,42.98c0-1.05,1.21-1.86,2.76-1.86s2.76,0.82,2.76,1.86s-1.21,1.86-2.76,1.86S77.49,44.02,77.49,42.98z"/><path d="M50,54.67c0.98,0,1.63-0.44,1.63-0.73s-0.65-0.73-1.63-0.73s-1.62,0.44-1.62,0.73S49.02,54.67,50,54.67z"/><path d="M20.36,42.25c-0.98,0-1.63,0.44-1.63,0.73s0.65,0.73,1.63,0.73s1.62-0.44,1.62-0.73S21.34,42.25,20.36,42.25z"/><path d="M33.38,44.43c0.02,0.01,0.05,0.02,0.07,0.02c3.2,1.78,7.9,3.08,13.22,3.45c2.18,0.17,4.48,0.17,6.65,0   c5.32-0.37,10.02-1.67,13.22-3.45c0.02,0,0.05-0.01,0.07-0.02c2.84-1.32,4.64-3.08,4.64-5.21c0-0.89-0.06-1.75-0.17-2.6   C69.82,26.11,60.84,17.95,50,17.95c-10.84,0-19.82,8.16-21.09,18.67c-0.11,0.85-0.17,1.71-0.17,2.6   C28.74,41.35,30.55,43.11,33.38,44.43z M33.44,29.17c2-3.15,4.46-5.1,6.19-6.22c0.22-0.14,0.47,0.13,0.31,0.34   c-1.58,2.11-3.77,5.73-4.59,10.67c-0.58,3.52-0.27,6.51,0.12,8.56c0.03,0.16-0.1,0.29-0.26,0.27c-0.59-0.08-1.35-0.25-2.17-0.65   c-0.27-0.13-0.97-0.49-1.71-1.16c-0.46-0.42-0.8-0.83-1.05-1.17c-0.03-0.04-0.04-0.09-0.04-0.14   C30.29,37.76,30.67,33.53,33.44,29.17z"/><path d="M80.25,42.25c-0.98,0-1.63,0.44-1.63,0.73s0.65,0.73,1.63,0.73s1.62-0.44,1.62-0.73S81.23,42.25,80.25,42.25z"/></g><text x="0" y="115" fill="#000000" font-size="5px" font-weight="bold" font-family="'Helvetica Neue', Helvetica, Arial-Unicode, Arial, Sans-serif">Created by Garoks</text><text x="0" y="120" fill="#000000" font-size="5px" font-weight="bold" font-family="'Helvetica Neue', Helvetica, Arial-Unicode, Arial, Sans-serif">from the Noun Project</text></svg>