<svg xmlns="http://www.w3.org/2000/svg" data-name="Layer 1" viewBox="0 0 128 160" x="0px" y="0px"><title>Miscellaneous 219_Expanded</title><path d="M98,80H30a2.0001,2.0001,0,0,0-2,2c0,13.28369,8.27441,25.43506,21.08008,30.957a38.09786,38.09786,0,0,0,29.84082-.00049C91.72559,107.43506,100,95.28369,100,82A2.0001,2.0001,0,0,0,98,80ZM77.33789,109.2832a34.09946,34.09946,0,0,1-26.6748.00049c-.4978-.21466-.97968-.45172-1.46173-.68842C51.31158,101.72638,57.27008,97,64,97s12.68835,4.72626,14.79865,11.59521C78.31689,108.83173,77.83533,109.06866,77.33789,109.2832Zm5.00568-2.7171C79.49469,98.48822,72.21027,93,64,93s-15.49469,5.48816-18.34351,13.566A29.77562,29.77562,0,0,1,32.07129,84H95.92871A29.77615,29.77615,0,0,1,82.34357,106.5661Z"/><path d="M64,0a64,64,0,1,0,64,64A64.07239,64.07239,0,0,0,64,0Zm0,124a60,60,0,1,1,60-60A60.06812,60.06812,0,0,1,64,124Z"/><path d="M92,27A16.00633,16.00633,0,0,0,76.04138,42.18323C76.02753,42.45557,76,42.7243,76,43s.02753.54443.04138.81677A15.99,15.99,0,1,0,92,27ZM80,43a4,4,0,1,1,4,4A4.00427,4.00427,0,0,1,80,43ZM92,55a11.96222,11.96222,0,0,1-8.97913-4.06622,8.00015,8.00015,0,1,0,0-15.86755A11.99256,11.99256,0,1,1,92,55Z"/><path d="M43,64A21.00887,21.00887,0,0,0,63.93793,44.22522a12.123,12.123,0,0,0,0-2.45044A20.98724,20.98724,0,1,0,43,64ZM59.95862,42.18317C59.97168,42.45569,60,42.7243,60,43s-.02832.54431-.04138.81683a8,8,0,1,1,0-1.63367ZM43,26a16.93911,16.93911,0,0,1,12.50684,5.52551,12,12,0,1,0,0,22.949A16.98884,16.98884,0,1,1,43,26Z"/><text x="0" y="143" fill="#000000" font-size="5px" font-weight="bold" font-family="'Helvetica Neue', Helvetica, Arial-Unicode, Arial, Sans-serif">Created by WEBTECHOPS LLP</text><text x="0" y="148" fill="#000000" font-size="5px" font-weight="bold" font-family="'Helvetica Neue', Helvetica, Arial-Unicode, Arial, Sans-serif">from the Noun Project</text></svg>