<svg xmlns="http://www.w3.org/2000/svg" version="1.1" viewBox="-5.0 -10.0 110.0 135.0">
 <path d="m12.762 49.457v22.047l35.082 20.258v-33.738l-3.9883 6.9062c-0.58984 1.0273-1.9023 1.3828-2.9297 0.78906zm25.004-9.0039 10.078-5.8203v-26.395l-32.938 19.02zm14.387-5.8164 10.078 5.8203 22.859-13.199-32.938-19.02zm5.7852 8.3008-7.9375 4.582-7.9375-4.582 7.9375-4.582zm30.668-12.746 5.8555 10.141-35.672 20.598-5.8555-10.141zm-36.453 27.836v33.73l35.082-20.258 0.003906-22.043-28.168 16.262c-1.0234 0.58984-2.332 0.23828-2.9258-0.78516l-0.003906 0.003906zm-40.648-14.25-5.9648-3.4414 5.8555-10.141 35.672 20.598-5.8555 10.137z" fill-rule="evenodd"/>
<text x="0.0" y="117.5" font-size="5.0" font-weight="bold" font-family="Arbeit Regular, Helvetica, Arial-Unicode, Arial, Sans-serif" fill="#000000">Created by Siti Zullyanti Afidah</text><text x="0.0" y="122.5" font-size="5.0" font-weight="bold" font-family="Arbeit Regular, Helvetica, Arial-Unicode, Arial, Sans-serif" fill="#000000">from Noun Project</text></svg>