<svg xmlns="http://www.w3.org/2000/svg" data-name="Layer 1" viewBox="0 0 64 80" x="0px" y="0px"><path d="M27.62936,21.73219c-5.09043,2.70392-8.59128,7.74526-11.20235,12.734-2.64339,5.05043-5.67087,11.24425-4.18178,17.06694a12.96673,12.96673,0,0,0,2.1914,4.50776c4.63812,6.23346,12.74767,7.95274,20.35785,7.24088a36.58631,36.58631,0,0,0,7.75112-1.5882,18.544,18.544,0,0,0,8.564-5.45939c7.83192-9.238.47268-22.05335-6.415-29.45963C40.29775,22.04657,33.96865,18.36494,27.62936,21.73219Z"/><path d="M14.72187,22.92175a5.96475,5.96475,0,0,0,7.12105.31486c3.59711-2.38514,3.66643-7.54189,2.58078-11.26917a13.72331,13.72331,0,0,0-1.01956-2.5383c-1.0952-2.087-3.09548-4.06752-5.6062-4.14178-5.62166-.16625-6.97377,7.62651-6.19912,11.79713A9.961,9.961,0,0,0,14.72187,22.92175Z"/><path d="M41.70034,19.50278a6.3255,6.3255,0,0,0,4.73057-3.2554,11.39918,11.39918,0,0,0,1.30175-7.38493c-.54313-3.88281-3.99381-10.18453-8.84031-7.751-1.83876.92329-2.84,2.92363-3.4903,4.78015-.162.46248-.30554.93129-.43805,1.403-.92327,3.28658-.67971,7.52548,1.70823,10.16525A6.21359,6.21359,0,0,0,41.70034,19.50278Z"/><path d="M9.35821,23.46276a4.44166,4.44166,0,0,0-4.61165-.94366,5.8642,5.8642,0,0,0-2.83229,3.48811,11.13456,11.13456,0,0,0-.64951,4.55462c.266,3.54889,2.55946,8.77465,6.693,8.76653a5.15752,5.15752,0,0,0,.77885-.06178,6.06618,6.06618,0,0,0,4.77146-4.71606C14.48369,30.66073,12.33887,25.97992,9.35821,23.46276Z"/><path d="M62.23707,21.54032A8.16686,8.16686,0,0,0,59.801,17.6915a4.37228,4.37228,0,0,0-4.80562-.38171c-2.82665,1.552-4.26464,6.12316-4.411,9.12436a7.20612,7.20612,0,0,0,3.3823,6.49388c2.5989,1.44958,5.79525-.00005,7.29078-2.37215A11.11692,11.11692,0,0,0,62.23707,21.54032Z"/><text x="0" y="79" fill="#000000" font-size="5px" font-weight="bold" font-family="'Helvetica Neue', Helvetica, Arial-Unicode, Arial, Sans-serif">Created by Delwar Hossain</text><text x="0" y="84" fill="#000000" font-size="5px" font-weight="bold" font-family="'Helvetica Neue', Helvetica, Arial-Unicode, Arial, Sans-serif">from the Noun Project</text></svg>