<svg xmlns="http://www.w3.org/2000/svg" version="1.1" viewBox="-5.0 -10.0 110.0 135.0">
 <g>
  <path d="m56.734 34.863c-0.003906-0.023437 0.98828-1.6875 0.96875-1.7148 0 0-7.6992-8.7266-7.6992-8.7266l-7.6992 8.7461 0.96875 1.6914h13.465z"/>
  <path d="m60.684 58.848-3.3047-19.953h-14.754l-1.3477 8.1211z"/>
  <path d="m40.57 51.309-0.86719 5.3008 22.918 13.969-1.0703-6.4883z"/>
  <path d="m71.711 14.246-3.2461-5.5234c-0.52344-0.90625-1.4922-1.4297-2.5-1.4297-9.0938 3.875-21.363 4.8477-30.516 0.36328-1.4102-0.74609-3.125-0.28125-3.9102 1.0703l-3.2461 5.5234c-0.42188 0.70703-0.52344 1.5508-0.28125 2.3164l3.8281 15.742c0.48828 2.1445 3.3906 2.8477 4.7969 1.168l11.57-13.102c0.44531-0.52344 1.1094-0.80469 1.793-0.80469s1.3516 0.28125 1.793 0.80469l11.629 13.18c1.3125 1.5312 3.9961 0.88281 4.4531-1.0664l4.0898-15.902c0.26172-0.78516 0.16016-1.6328-0.26172-2.3398z"/>
  <path d="m38.977 60.902-3.2031 19.41-0.019532 0.14062 14.09 12.254c0.21484-0.25 0.12891-0.19531 0.32422 0l14.09-12.254-0.76562-4.6367-24.508-14.914z"/>
 </g>
<text x="0.0" y="117.5" font-size="5.0" font-weight="bold" font-family="Arbeit Regular, Helvetica, Arial-Unicode, Arial, Sans-serif" fill="#000000">Created by Selot Lo</text><text x="0.0" y="122.5" font-size="5.0" font-weight="bold" font-family="Arbeit Regular, Helvetica, Arial-Unicode, Arial, Sans-serif" fill="#000000">from Noun Project</text></svg>