<svg xmlns="http://www.w3.org/2000/svg" version="1.1" viewBox="-5.0 -10.0 110.0 135.0">
 <path d="m50 74.5c-10.512 0-12.949-4.0781-14.922-2.1211-3.1094 3.1094 1.8125 11.93 14.922 11.93s18.02-8.8203 14.922-11.93c-1.9727-1.9688-4.4102 2.1211-14.922 2.1211zm21.441-43.66c-0.78125 1.1016-1.7109 2.0898-2.7695 2.9609-10.391 8.5781-33.051 6.3984-46.102-8.2188-0.5-0.57031-1-1.1484-1.4688-1.75-0.46875-0.60156-0.92969-1.2188-1.3711-1.8516-1.4883-2.1484-2.7812-4.5117-3.8398-7.0898-0.62109-1.5195-1.1602-3.1211-1.6094-4.7891 7.8984 5.0703 19.82 3.1914 35.762-5.6289 8.6094-4 15.691-1.9219 21.25 6.2383 0.98047 2.0898 1.6992 4.0703 2.1602 5.9297 2.7305 1.7305 5.2617 3.7617 7.5391 6.0391 7.9297 7.9297 12.84 18.891 12.84 30.988 0 12.102-4.9102 23.059-12.84 30.988-7.9336 7.9336-18.891 12.844-30.992 12.844s-23.059-4.9102-30.988-12.84c-7.9336-7.9297-12.84-18.891-12.84-30.988 0-11.059 4.1016-21.172 10.859-28.879 0.44922 0.64844 0.91016 1.2695 1.3906 1.8789s0.98047 1.1992 1.4883 1.7695c2.1211 2.3711 4.4883 4.4102 7.0195 6.1289-3.7812 7.8086-9.3516 14.578-16.18 19.789 0.17969 10.559 4.5391 20.109 11.488 27.059 7.1094 7.1016 16.922 11.5 27.762 11.5s20.66-4.3984 27.762-11.5c6.9492-6.9492 11.309-16.5 11.488-27.059-7.8906-6.0195-14.109-14.129-17.809-23.52zm-31.402 23.148c0-2.8984-2.3516-5.25-5.25-5.25-2.8984 0-5.25 2.3516-5.25 5.25 0 2.8984 2.3516 5.25 5.25 5.25 2.8906 0 5.25-2.3477 5.25-5.25zm25.18-5.25c-2.8984 0-5.25 2.3516-5.25 5.25 0 2.8984 2.3516 5.25 5.25 5.25s5.25-2.3516 5.25-5.25c0-2.8984-2.3477-5.25-5.25-5.25z" fill-rule="evenodd"/>
<text x="0.0" y="117.5" font-size="5.0" font-weight="bold" font-family="Arbeit Regular, Helvetica, Arial-Unicode, Arial, Sans-serif" fill="#000000">Created by Hafid Firman Syarif</text><text x="0.0" y="122.5" font-size="5.0" font-weight="bold" font-family="Arbeit Regular, Helvetica, Arial-Unicode, Arial, Sans-serif" fill="#000000">from Noun Project</text></svg>