<svg xmlns="http://www.w3.org/2000/svg" version="1.1" viewBox="-5.0 -10.0 110.0 135.0">
 <path d="m64.961 20.441c13.77 0.019532 25.156 11.207 25.414 24.973 0.24219 14.219-11.703 25.859-25.922 25.859h-14.105c-0.77344 0-1.4922 0.41016-1.8789 1.0781-0.28906 0.51563-0.36719 1.1172-0.22266 1.6875l0.99609 4.3359c0.015624 0.070312 0.023437 0.14453 0.023437 0.21484 0 0.53125-0.4375 0.96875-0.96484 0.96875-0.19141 0-0.375-0.058594-0.53516-0.16016l-8.5703-5.6797c-2.1719-1.4258-4.6484-2.3242-7.2266-2.625-13.113-1.5977-22.906-13.168-22.32-26.363 0.59766-13.676 12.215-24.289 25.902-24.289zm15.883 36.32c0.85938 0 1.5625-0.70312 1.5625-1.5625 0-0.85547-0.70312-1.5625-1.5625-1.5625l-17.684-0.027344 17.762-17.367c0.30078-0.29297 0.47266-0.69531 0.47266-1.1172 0-0.85156-0.69531-1.5547-1.5469-1.5625l-21.59-0.23047h-0.023437c-0.85938 0-1.5664 0.70703-1.5664 1.5625s0.70312 1.5586 1.5547 1.5625l17.812 0.19141-17.801 17.398c-0.30078 0.29688-0.46875 0.69922-0.46875 1.1172 0 0.85938 0.70312 1.5625 1.5625 1.5625zm-27.621 0.74219h0.003906c0.85547 0 1.5625-0.70312 1.5625-1.5625 0-0.85547-0.70703-1.5625-1.5625-1.5625l-12.859-0.019531 13.16-12.867c0.30078-0.29297 0.47266-0.69922 0.47266-1.1172 0-0.85156-0.69531-1.5547-1.5469-1.5625l-16.742-0.17969h-0.027344c-0.85547 0-1.5625 0.70703-1.5625 1.5625 0 0.85547 0.70312 1.5586 1.5547 1.5625l12.969 0.13672-13.199 12.898c-0.30078 0.29688-0.46875 0.69922-0.46875 1.1172 0 0.85938 0.70313 1.5625 1.5625 1.5625zm-22.543 0.87891c0.85547 0 1.5586-0.70312 1.5586-1.5625 0-0.85547-0.70312-1.5625-1.5625-1.5625l-7.1367-0.011718 7.7109-7.5391c0.30469-0.29297 0.47266-0.69531 0.47266-1.1172 0-0.85547-0.69531-1.5586-1.5508-1.5625l-11-0.11719h-0.023437c-0.85938 0-1.5664 0.70312-1.5664 1.5625 0 0.85156 0.70312 1.5586 1.5547 1.5625l7.2266 0.078125-7.7461 7.5703c-0.30078 0.29688-0.46875 0.69922-0.46875 1.1172 0 0.85938 0.70703 1.5625 1.5625 1.5625z" fill-rule="evenodd"/>
<text x="0.0" y="117.5" font-size="5.0" font-weight="bold" font-family="Arbeit Regular, Helvetica, Arial-Unicode, Arial, Sans-serif" fill="#000000">Created by Nice Design</text><text x="0.0" y="122.5" font-size="5.0" font-weight="bold" font-family="Arbeit Regular, Helvetica, Arial-Unicode, Arial, Sans-serif" fill="#000000">from Noun Project</text></svg>