<svg width="288" height="288" viewBox="0 0 288 288" fill="none" xmlns="http://www.w3.org/2000/svg">
<path d="M195.944 93.4526C193.503 97.9839 192.172 107.726 194.169 107.726C196.388 107.726 199.938 94.5854 198.163 92.7729C197.497 92.0933 196.61 92.3198 195.944 93.4526Z" fill="black"/>
<path d="M183.963 116.109C181.078 117.921 178.86 120.414 178.86 121.546C178.86 125.398 184.85 123.585 189.953 117.921C195.944 111.351 191.95 110.218 183.963 116.109Z" fill="black"/>
<path d="M140.697 124.039C131.378 126.078 130.269 126.984 128.938 134.234C127.163 144.429 129.603 146.242 145.135 146.242C157.781 146.242 157.781 146.242 159.778 130.835C161.331 119.96 160.666 119.734 140.697 124.039Z" fill="black"/>
<path d="M164.881 125.171C164.216 127.437 163.106 134.007 162.219 139.671C161.11 149.414 161.331 150.546 167.766 156.21C175.531 162.781 179.969 163.914 177.972 158.703C177.306 156.89 178.86 151.679 181.3 147.375C187.513 136.5 185.516 129.25 175.31 124.718C165.325 120.64 165.991 120.414 164.881 125.171Z" fill="black"/>
<path d="M100.316 128.57C98.0971 129.703 94.9908 130.156 93.2158 129.476C91.2189 128.57 89.2221 130.156 87.8908 134.007C84.7846 141.937 84.7846 141.71 94.1033 141.71C100.981 141.71 103.644 140.351 107.416 135.14C111.853 129.023 111.853 128.57 108.081 127.437C105.863 126.984 102.313 127.437 100.316 128.57Z" fill="black"/>
<path d="M110.522 137.406C100.538 149.867 98.7627 155.304 105.197 154.171C120.728 151 120.95 150.773 123.169 142.164C128.716 122.453 123.835 120.64 110.522 137.406Z" fill="black"/>
<path d="M185.516 148.507C182.41 154.171 182.188 153.945 191.95 156.664C197.053 158.023 200.603 161.195 203.488 166.632C205.928 170.937 207.703 173.203 207.703 171.617C207.703 166.632 201.713 156.664 194.835 149.867L188.178 143.523L185.516 148.507Z" fill="black"/>
<path d="M148.463 152.359C150.46 152.812 154.01 152.812 156.228 152.359C158.225 151.679 156.45 151.226 152.235 151.226C148.019 151.226 146.244 151.679 148.463 152.359Z" fill="black"/>
<path d="M125.61 157.796C127.606 161.421 128.716 161.875 131.378 159.835C135.15 156.437 133.375 153.039 127.606 153.039C123.835 153.039 123.613 153.718 125.61 157.796Z" fill="black"/>
<path d="M90.1096 167.765C75.6877 180.906 79.6814 180.906 97.2096 167.765C107.638 160.062 109.856 157.57 106.085 157.57C103.422 157.57 96.3221 162.101 90.1096 167.765Z" fill="black"/>
<path d="M132.044 163.234C130.713 168.671 131.6 177.96 133.375 177.96C134.928 177.96 135.372 174.562 134.928 170.031C134.041 163.007 132.71 160.062 132.044 163.234Z" fill="black"/>
<path d="M169.319 172.296C165.769 175.468 164.438 177.96 166.213 177.96C167.766 177.96 171.538 175.468 174.422 172.296C181.078 165.046 177.528 165.046 169.319 172.296Z" fill="black"/>
</svg>
