<svg xmlns="http://www.w3.org/2000/svg" version="1.1" viewBox="-5.0 -10.0 110.0 135.0">
 <g>
  <path d="m76.562 22.031c-0.91406 0.13281-3.1641 1.1094-5.2734 2.2891-0.82031 0.46094-3.4453 2.1016-4.1797 2.6172-1.6719 1.1719-3.9766 3.0703-5.4844 4.5234-0.5 0.48437-0.96875 0.88281-1.0391 0.88281-0.070313 0-0.38281-0.070312-0.6875-0.15625-0.76563-0.21094-4.0469-0.98438-4.625-1.0938-0.78125-0.14062-1.8672-0.27344-3.9062-0.46875-2.6328-0.26562-6.9219-0.24219-9.5625 0.039062-1.7266 0.17969-1.8047 0.1875-2.6641 0.27344-0.45312 0.039062-1.0312 0.11719-1.2891 0.15625-2.2578 0.40625-3.0781 0.47656-3.5 0.32031-0.10156-0.039062-0.45312-0.30469-0.76562-0.58594-0.64063-0.57031-1.5938-1.2344-2.2578-1.5703-0.63281-0.32031-2.1641-1.1953-2.6562-1.5234-0.23438-0.15625-1.1328-0.76562-1.9922-1.3438-2.0703-1.4062-4.5547-2.7656-6.8594-3.7656-0.98437-0.42969-1.4766-0.53906-1.8828-0.42969-0.33594 0.09375-0.53125 0.33594-0.99219 1.2422l-0.34375 0.66406-0.03125 1.1719c-0.0625 2.6953 0.50781 5.9062 1.625 9.1172 0.13281 0.375 0.36719 1.1641 0.51563 1.7578 0.32031 1.2422 0.59375 2.2109 1.1875 4.2812 0.5 1.7188 0.96875 3.4688 1.125 4.1406 0.17969 0.78125 0.13281 2.3984-0.10938 3.6328-0.28906 1.4844-0.46875 2.0703-0.60156 2.0547-0.3125-0.03125-2.1641-0.27344-2.8906-0.36719-0.45312-0.0625-1.1562-0.1875-1.5625-0.27344-1.2422-0.25781-2.9609-0.5-5.5469-0.78906-1.3828-0.14844-1.7109-0.16406-2.4219-0.09375-1.4453 0.14844-2.3906 0.63281-2.5781 1.3281-0.16406 0.64062 0.34375 1.5938 1.0625 1.9844 0.71875 0.38281 1.1016 0.47656 3.5859 0.89062 0.64844 0.10938 1.5078 0.25781 1.9141 0.33594 0.40625 0.078124 1.0625 0.1875 1.4453 0.23437 0.39063 0.046876 1.0234 0.19531 1.4062 0.32031 0.39063 0.125 0.91406 0.26562 1.1719 0.32031 0.80469 0.16406 2.125 0.95312 2.6094 1.5703 0.21094 0.26562 0.32031 0.9375 0.17188 1.0312-0.046876 0.03125-0.20313 0.023438-0.34375-0.023438-0.36719-0.11719-1.5547-0.32031-2.3828-0.39844-1.4062-0.14062-4.7812 0.16406-5.9141 0.53125-1.3906 0.46094-1.7656 0.69531-2.0547 1.3359-0.15625 0.33594-0.19531 0.5625-0.19531 1 0 1.0078 0.3125 1.4922 1.2734 1.9766 0.89062 0.45312 1.0625 0.46875 4.5312 0.46875 4.6172 0 5.625 0.14844 6.2656 0.89844 0.19531 0.22656 0.40625 0.92188 0.35156 1.1484-0.039063 0.13281-0.1875 0.26562-0.5 0.4375-0.50781 0.26562-0.95313 0.39062-2.3359 0.67969-1.1172 0.22656-1.5391 0.35937-2.0781 0.65625-2.1953 1.2188-1.8516 3.0547 0.65625 3.4922 0.99219 0.17188 2.0234 0.007813 4.6953-0.75781 0.73437-0.21094 1.3984-0.38281 1.4766-0.38281 0.070312 0 0.35938 0.28906 0.64844 0.64844 0.28906 0.35156 1.0703 1.1797 1.7422 1.8438 1.0859 1.0703 1.2812 1.2344 1.8047 1.4688 0.32813 0.14844 0.75781 0.35156 0.96094 0.46094s0.64062 0.29688 0.97656 0.42188c0.33594 0.11719 0.90625 0.32812 1.2734 0.46875 1.2891 0.46875 2.9844 1.0156 4.6484 1.4844 1.1797 0.32812 2.8984 0.67969 4.9609 1.0156 0.28125 0.039062 1.25 0.13281 2.1484 0.20312 1.7188 0.13281 4.2266 0.11719 8.0859-0.046875 0.96875-0.046875 2.2188-0.09375 2.7734-0.11719 2.8359-0.11719 6.3203-0.48437 7.8906-0.83594 1.625-0.35938 5.3906-1.6016 6.4297-2.125 0.20312-0.10156 0.49219-0.20312 0.65625-0.22656 0.71875-0.10937 3.7656-1.4922 4.8281-2.1953 1.3203-0.86719 2.6172-2.0234 3.3125-2.9609 0.125-0.15625 0.27344-0.28906 0.32812-0.28906 0.10938 0 1.1719 0.34375 2.8672 0.92969 0.60156 0.21094 1.0625 0.32031 1.3125 0.32031 0.53906 0 1.4922 0.20312 2.1016 0.45312 0.89844 0.36719 1.4688 0.26562 1.9062-0.32812 0.22656-0.30469 0.21875-1.1875-0.015625-1.6875-0.53906-1.1641-2.25-2.1484-4.7344-2.7422-0.90625-0.21875-1.2812-0.39844-1.3438-0.66406-0.0625-0.25781 0.023438-1.0781 0.14844-1.4531 0.15625-0.4375 0.39844-0.64844 0.86719-0.76562 0.34375-0.078125 0.875-0.078125 2.7969-0.007812 1.2969 0.054687 3.4062 0.11719 4.6797 0.14062 2.0703 0.039063 2.3672 0.03125 2.7344-0.085937 0.23438-0.078125 0.51563-0.22656 0.63281-0.34375 0.29688-0.27344 0.49219-0.82031 0.49219-1.3828 0-0.40625-0.03125-0.52344-0.26562-0.85937-0.50781-0.73438-1.1562-1.1797-2.3125-1.5859-1.6094-0.57031-1.8203-0.59375-5.5469-0.60938-4.3828-0.015625-4.3359-0.015625-4.3359-0.11719 0-0.22656 1.2812-0.58594 3.9062-1.0859 1.5547-0.29688 2.4062-0.5 3.5547-0.82812 0.39063-0.10938 0.89844-0.25 1.1328-0.3125s0.76562-0.21875 1.1719-0.34375 1.1016-0.32031 1.5469-0.42969c0.96094-0.23438 1.9375-0.58594 2.3984-0.85938 0.71094-0.41406 1.2422-1.2891 1.2266-2.0391-0.007813-0.86719-0.82812-1.3672-2.4531-1.5156-1.9141-0.17188-3.8828-0.078125-5.7656 0.26562-0.36719 0.070312-0.89062 0.16406-1.1719 0.21094-0.28125 0.046874-0.71875 0.14062-0.97656 0.20312-0.25781 0.070313-0.59375 0.14844-0.74219 0.17969-1.3516 0.29688-3.8828 1.0312-5.0391 1.4688-1.4375 0.53906-1.6641 0.61719-1.7422 0.57031-0.17969-0.10937-0.52344-1.8594-0.67969-3.4844-0.16406-1.6328-0.14844-1.9609 0.085938-2.6328 0.26562-0.76562 0.38281-1.25 0.65625-2.7812 0.28906-1.6094 0.60938-2.7266 1.1328-4.0391 0.22656-0.5625 0.51563-1.3828 0.65625-1.8359 0.14063-0.45312 0.32031-0.99219 0.40625-1.2031 0.23438-0.54688 0.73438-2.1484 0.96094-3.0547 0.77344-3.0703 1.0469-7.2422 0.59375-8.9062-0.21875-0.82812-0.52344-1.5-0.76562-1.6875-0.20312-0.15625-0.39062-0.17187-1.1094-0.070312zm-4.1562 7.6094c0.57812 0.30469 0.84375 0.88281 0.76562 1.6406-0.17969 1.7266-1.1641 4.6406-1.9062 5.6484-0.32031 0.42969-0.84375 0.78125-1.3828 0.92187-0.75 0.19531-1.4531 0.015626-2.2422-0.57031-0.22656-0.17188-0.53906-0.375-0.6875-0.44531-0.71875-0.36719-1.1406-0.94531-1.0469-1.4375 0.046875-0.22656 1.2734-1.8125 1.9297-2.5 0.32812-0.33594 1.2656-1.0703 1.6172-1.2578 0.49219-0.26562 1.3281-0.96094 1.6328-1.3672 0.34375-0.45313 0.71875-0.74219 0.96875-0.74219 0.078124 0 0.23437 0.046875 0.35156 0.10938zm-47.719 1.3906c0.67188 0.14062 1.3047 0.47656 2.1875 1.1797 1.4531 1.1562 2.4219 2.3516 2.4219 2.9766 0 0.20312-0.38281 1.0312-0.6875 1.4766-0.125 0.17969-0.42969 0.66406-0.67188 1.0703-0.25 0.40625-0.54688 0.84375-0.65625 0.96094-0.6875 0.73438-1.4453 0.53906-1.6953-0.4375-0.0625-0.25-0.11719-0.50781-0.11719-0.57031s-0.15625-0.48438-0.34375-0.9375c-0.28906-0.67969-0.44531-0.92188-0.88281-1.4141-1.6484-1.8203-1.8984-2.2188-1.8984-3.0391 0-0.36719 0.039062-0.53906 0.17969-0.73438 0.4375-0.64844 0.95312-0.78125 2.1641-0.53125zm15.695 13.422c0.64844 0.10938 1.2031 0.21875 1.6094 0.32031 0.17187 0.046874 0.45312 0.11719 0.625 0.16406 0.90625 0.23438 2.5625 1.0312 3.3594 1.625 1.4453 1.0625 2.5156 2.5781 2.9844 4.2188 0.03125 0.09375 0.054687 0.085938 0.14844-0.03125 0.0625-0.085938 0.10938-0.22656 0.10938-0.32031 0-0.25 0.69531-1.5781 1.1016-2.1094 0.45313-0.58594 1.2188-1.3438 1.8281-1.7969 0.39062-0.28906 1.8281-1.0547 2.4219-1.2891 0.085938-0.03125 0.24219-0.09375 0.35156-0.14062 0.10938-0.039062 0.33594-0.10938 0.50781-0.15625 0.17187-0.046875 0.45312-0.11719 0.625-0.16406 1.4766-0.38281 3.6172-0.52344 4.7578-0.3125 0.69531 0.13281 1.8906 0.51562 2.4453 0.78906 2.1094 1.0547 4.3125 4.0078 4.8281 6.4766 0.19531 0.9375 0.28906 2.5938 0.19531 3.5469-0.1875 1.9219-0.70312 3.25-1.625 4.1484-0.57031 0.55469-1.1172 0.875-2.0469 1.1797-1.9766 0.64844-3.8516 0.73438-5.5078 0.25781-0.17187-0.046875-0.4375-0.11719-0.58594-0.15625-2-0.46875-3.8672-1.5234-5.9062-3.3516-1.1406-1.0234-1.8594-1.8438-2.1172-2.4062-0.10938-0.22656-0.21094-0.41406-0.24219-0.41406-0.023438 0-0.17969 0.13281-0.34375 0.28906-0.26562 0.25781-0.29688 0.32813-0.29688 0.67969 0 0.58594 0.24219 1.0078 0.78125 1.375 0.25 0.16406 0.46875 0.35938 0.5 0.42969 0.070313 0.17969-0.085937 0.42969-0.27344 0.42969-0.28125 0-0.91406-0.38281-1.2109-0.74219-0.32812-0.38281-0.42188-0.42188-0.58594-0.21875-0.21875 0.26562-1.0312 0.80469-1.2109 0.80469-0.22656 0-0.38281-0.25-0.27344-0.45312 0.046874-0.085938 0.26562-0.28906 0.5-0.46875 0.66406-0.51562 1.0547-1.4219 0.61719-1.4219-0.070313 0-0.28125-0.085937-0.46094-0.1875l-0.32813-0.19531-0.35156 0.52344c-0.19531 0.28906-0.54688 0.71875-0.77344 0.96094-0.60937 0.63281-1.8906 1.7578-2.4219 2.1328-0.25781 0.17188-0.67969 0.46875-0.94531 0.65625-0.52344 0.36719-1.8594 1.0391-2.3516 1.1953-0.17187 0.046876-0.38281 0.11719-0.46875 0.15625-0.085937 0.03125-0.24219 0.078126-0.35156 0.10938-0.10938 0.023437-0.46094 0.11719-0.78125 0.21094-1.9219 0.51562-3.5234 0.49219-5.4688-0.10156-0.54688-0.17187-0.60156-0.1875-1.25-0.46875-0.59375-0.26562-1.6328-1.2812-1.9297-1.9062-0.23437-0.48437-0.48437-1.2578-0.65625-1.9922-0.15625-0.64844-0.125-3.7891 0.039063-4.4531 0.30469-1.2812 0.96094-2.7656 1.5312-3.4766 0.16406-0.21875 0.44531-0.58594 0.61719-0.82031 0.30469-0.4375 1.0078-1.1406 1.6484-1.6562 0.80469-0.64844 2.125-1.1953 3.4766-1.4531 0.54688-0.10156 2.5391-0.10938 3.1562-0.015625zm-30.18 5.8594c1.6094 0.16406 2.4688 0.27344 3.1953 0.38281 1.2812 0.20313 1.5938 0.25 1.9922 0.32031 0.53906 0.10156 1.0312 0.20312 1.4844 0.3125 0.19531 0.046875 0.49219 0.11719 0.66406 0.15625 0.60156 0.13281 0.94531 0.21875 1.4844 0.375 1.1328 0.32812 2.125 0.63281 2.6562 0.82031 0.98437 0.35937 1.8672 0.6875 2.1484 0.8125 0.29688 0.14062 0.625 0.39844 0.625 0.50781 0 0.16406-0.85156 0.046875-1.75-0.25-1.2734-0.42188-1.2812-0.42188-2.3906-0.73438-1.8828-0.53125-3.0078-0.82812-3.3984-0.90625-0.17187-0.03125-0.50781-0.10156-0.74219-0.15625s-0.58594-0.125-0.78125-0.15625c-1.1172-0.20312-1.4141-0.25-1.875-0.3125-1.3984-0.20312-2.5781-0.33594-4.0625-0.46875-1.3281-0.10938-1.8672-0.22656-2.125-0.45312-0.19531-0.16406-0.17188-0.3125 0.039063-0.35156 0.41406-0.078126 1.4531-0.046876 2.8359 0.10156zm80.477-0.10938c0.09375 0.023437 0.1875 0.09375 0.21094 0.15625 0.10938 0.27344-0.77344 0.53125-2.2188 0.65625-2.5391 0.21094-4.9766 0.54688-6.7578 0.9375-0.21094 0.046875-0.54687 0.11719-0.74219 0.14844-0.19531 0.039063-0.54688 0.125-0.78125 0.1875-0.23438 0.070313-0.71094 0.19531-1.0547 0.28906-1.1016 0.28906-2.0234 0.54688-2.2266 0.61719-0.10938 0.039063-0.46094 0.14844-0.78125 0.24219-0.32031 0.10156-0.89062 0.28125-1.2578 0.39844-0.64062 0.21875-1.4766 0.30469-1.4766 0.16406 0-0.16406 0.89844-0.71875 1.1641-0.71875 0.03125 0 0.30469-0.10156 0.60156-0.21875 0.60156-0.25 2.4844-0.875 3.375-1.1172 0.13281-0.039062 0.38281-0.10937 0.54688-0.15625 0.33594-0.09375 0.78906-0.21094 1.2266-0.30469 0.17188-0.039063 0.45313-0.10156 0.625-0.14062 0.67969-0.16406 1.1875-0.27344 1.5625-0.32812 0.21875-0.039063 0.60156-0.10156 0.85938-0.14062 1.0781-0.1875 2.1953-0.33594 3.5547-0.48438 0.79688-0.085937 1.5547-0.16406 1.6797-0.17969 0.39844-0.054688 1.7109-0.054688 1.8906-0.007813zm-69.625 8c0.47656 0.039063 1.1094 0.09375 1.4062 0.125 1.5391 0.13281 2.3125 0.25781 2.6016 0.41406 0.14844 0.078124 0.16406 0.11719 0.085938 0.21094-0.078126 0.09375-0.27344 0.10938-1.0781 0.085937-5.4453-0.1875-7.5156-0.21875-9.4219-0.14062-1.8516 0.078124-2.7969 0.14844-3.4375 0.26562-0.96094 0.17969-1.4219 0.21875-1.6172 0.14063-0.46875-0.17969-0.15625-0.625 0.50781-0.72656 0.71875-0.10938 1.4844-0.22656 2.125-0.3125 1.375-0.17969 6.9766-0.22656 8.8281-0.0625zm64.258 0.007813c0.85938 0.10156 1.6484 0.21094 2.1953 0.30469 0.23438 0.046875 0.50781 0.078125 0.60156 0.078125s0.28125 0.10156 0.42188 0.22656c0.25 0.21875 0.25 0.24219 0.11719 0.375-0.16406 0.16406-0.53906 0.17188-1.4609 0.03125-2.2188-0.35156-4.7734-0.44531-8.9844-0.32031-4.8125 0.14844-5.2656 0.14062-5.2969-0.007812-0.015625-0.070313 0.039062-0.15625 0.11719-0.1875 0.5625-0.24219 3.1562-0.5 5.8047-0.57813 2.1719-0.070312 5.6328-0.023437 6.4844 0.078126zm-56.328 5.2969c0 0.039063-0.046875 0.10938-0.10938 0.15625-0.10938 0.09375-1.6797 0.49219-3.0938 0.78125-0.45312 0.09375-0.97656 0.20313-1.1719 0.25-0.19531 0.046876-0.50781 0.11719-0.70312 0.15625-0.51562 0.11719-0.95312 0.23438-1.1562 0.3125-0.10156 0.039063-0.24219 0.070313-0.32031 0.070313-0.078126 0-0.3125 0.0625-0.52344 0.14844-0.21094 0.078126-0.73438 0.25781-1.1641 0.39844-0.8125 0.25781-2.1406 0.75781-2.8125 1.0547-0.21094 0.09375-0.67188 0.27344-1.0156 0.40625-1.3906 0.52344-1.6016 0.53906-1.3672 0.10156 0.1875-0.34375 1.4297-1 3.0469-1.6094 1.4141-0.52344 2.3125-0.83594 3.0078-1.0312 0.17188-0.054687 0.53906-0.15625 0.82031-0.24219 1.1172-0.32813 1.875-0.46875 4.8047-0.92969 0.61719-0.09375 1.7578-0.10938 1.7578-0.023438zm41.914 0.046876c2.1094 0.28125 3.4609 0.53906 4.7266 0.90625 0.28125 0.085937 0.64844 0.1875 0.82031 0.24219 0.4375 0.11719 1.6875 0.52344 1.875 0.60938 0.085938 0.03125 0.28125 0.10156 0.42969 0.15625s0.34375 0.125 0.42969 0.15625c2.3125 0.92188 2.5312 1.0234 3.0703 1.4609 0.30469 0.25 0.44531 0.57031 0.24219 0.57031-0.20313 0-0.92188-0.22656-1.2578-0.39844-0.078125-0.039062-0.17188-0.070312-0.21875-0.070312-0.039063 0-0.25781-0.085938-0.48438-0.1875-0.54688-0.25-2.1797-0.89062-2.7188-1.0625-0.23438-0.078125-0.57031-0.1875-0.74219-0.25-0.32812-0.125-1.1719-0.375-1.7578-0.53125-0.19531-0.054688-0.4375-0.125-0.54688-0.15625s-0.38281-0.10156-0.60156-0.14844c-0.84375-0.17969-3.7812-0.83594-4.2422-0.95312-0.14844-0.03125-0.375-0.085938-0.50781-0.11719-0.21875-0.054688-0.35156-0.15625-0.35156-0.28906 0-0.09375 0.91406-0.0625 1.8359 0.0625z"/>
  <path d="m54.008 50.852c-0.35156 0.21875-0.64844 0.6875-0.64844 1.0312 0 0.39844 0.29688 0.92188 0.625 1.0938 0.19531 0.10938 0.4375 0.14844 0.83594 0.14844 0.52344 0 0.58594-0.015625 0.84375-0.24219 0.57031-0.5 0.64844-1.0547 0.23438-1.6016-0.40625-0.53125-1.3672-0.74219-1.8906-0.42969z"/>
  <path d="m42.383 51.477c-0.085937 0.039063-0.32031 0.21875-0.52344 0.40625-0.29688 0.28125-0.36719 0.40625-0.41406 0.71875-0.039062 0.23438-0.023437 0.45313 0.039063 0.60156 0.11719 0.28906 0.63281 0.75781 0.90625 0.82812 0.42188 0.10938 1.3438-0.33594 1.5625-0.75781 0.0625-0.125 0.10938-0.39063 0.10938-0.60156 0-0.46094-0.14062-0.67188-0.6875-1.0234-0.375-0.24219-0.6875-0.29688-0.99219-0.17188z"/>
 </g>
<text x="0.0" y="117.5" font-size="5.0" font-weight="bold" font-family="Arbeit Regular, Helvetica, Arial-Unicode, Arial, Sans-serif" fill="#000000">Created by hyo ju kim</text><text x="0.0" y="122.5" font-size="5.0" font-weight="bold" font-family="Arbeit Regular, Helvetica, Arial-Unicode, Arial, Sans-serif" fill="#000000">from Noun Project</text></svg>