<svg xmlns="http://www.w3.org/2000/svg" version="1.1" viewBox="-5.0 -10.0 110.0 135.0">
 <g>
  <path d="m2.9766 51.328c2.9961-8.0742 7.4531-14.98 14.605-19.82 5.7891-3.918 12.223-5.9727 19.238-6.332 8.0117-0.40625 15.445 1.3555 22.328 5.4453 0.96484 0.57031 1.9219 1.1914 2.6367 2.1914-1.5703 2.1875-2.9688 4.4766-3.9727 6.9727-4.5312 11.273-0.34766 23.117 11.164 28.016 6.2227 2.6445 12.406 3.0898 18.637 0.25391 0.96875-0.44141 1.5938 0.26562 2.3945 0.24219 1.6523-0.046875 3.3047-0.050781 4.9531-0.11719 0.80859-0.035157 1.6055-0.039063 2.3945 0.12891 1.582 0.33984 2.7461 1.8438 2.6367 3.3906-0.10547 1.5156-1.3867 2.6758-3.0742 2.7539-1.5117 0.074219-3.0195 0.14453-4.5312 0.14453-25.406 0.023438-50.816 0.035156-76.223 0.066406-0.94531 0.003907-1.6172-0.28516-2.1562-1.0586-1.4961-2.1367-2.2148-4.5-2.3711-7.0547 0.71875-0.22266 1.1055 0.10547 1.4961 0.32812 2.5781 1.4492 5.3555 1.9883 8.2969 1.9844 11.004-0.023437 22.008-0.007812 33.012 0.015625 0.85156 0.003906 1.6641-0.035156 2-0.95312 0.32812-0.89844-0.30469-1.4609-0.96484-1.832-3.793-2.1328-5.2305-5.5898-5.7539-9.6875-0.45312-3.5898-1.625-6.9609-3.6289-10.023-2.6445-4.0469-6.4336-6.4062-10.988-7.7188-1.0391-0.30078-1.6836 0.14844-2.0586 0.98438-0.39453 0.88281 0.0625 1.5586 0.84375 1.9961 0.36719 0.20312 0.77734 0.33984 1.1836 0.46094 5.0703 1.4727 8.2344 4.957 10.156 9.707 0.88672 2.1953 1.3125 4.5156 1.5898 6.8594 0.26953 2.3242 1.0938 4.4648 2.2812 6.3945-0.42187 0.70703-1.0039 0.49219-1.4805 0.49219-8.9727 0.023437-17.945 0.039062-26.918 0.023437-3.5781-0.007812-6.5625-1.5195-9.2188-3.8047-0.53125-0.46094-0.97656-1.0234-1.8477-1.3711-0.69141 1.5742-1.0508 3.2148-1.0742 4.8828-0.10547 7.4219 3.4375 12.961 9.1719 17.281 3.7734 2.8477 8.1211 4.2656 12.801 4.3477 4.4688 0.074219 8.6758-1.1523 12.488-3.5742 0.47656-0.30469 0.96875-0.58984 1.4727-0.84375 2.1602-1.0781 4.3477-0.64453 5.5781 1.082 1.4414 2.0273 1.3164 4.4922-0.41406 6.207-2.0273 2.0117-4.6133 3.125-7.2227 4.0938-16.781 6.2383-34.672-2.0078-40.816-18.824-2.3359-6.3945-1.9688-12.879-0.10938-19.328 0.42578-1.4492 0.95703-2.8672 1.4648-4.4023z"/>
  <path d="m71.461 30.684c0.78125 2.2969 1.3711 4.5234 1.7305 6.8086 0.14062 0.90234 0.51172 1.4023 1.5742 1.3516 5.1602-0.26172 9.3555 1.8125 12.781 5.5469 0.75781 0.82422 1.3828 1 2.4336 0.57422 2.2305-0.89062 4.5156-1.6562 6.918-1.9961 2.5352-0.35156 3.5625 0.85547 2.7422 3.2695-1.168 3.4219-2.7461 6.6172-5.25 9.2891-0.29688 0.32031-0.46875 0.68359-0.60156 1.1016-1.9766 6.3555-6.8359 9.4219-12.949 10.027-8.2266 0.80859-15.035-2.2891-19.441-9.5391-2.8242-4.6484-2.7344-9.707-1.0664-14.754 1.4727-4.4375 3.8828-8.3711 6.8398-11.977 0.51172-0.62109 1.082-1.2461 1.9023-1.3984 1.2617-0.24609 1.8945 0.57812 2.3867 1.6953m-2.8203 28.023c0.34375 2.1797 1.6758 2.7266 4.9453 1.9922 0.17578 0.35547 0.33984 0.73438 0.55469 1.0938 0.66797 1.1016 2.375 1.9102 3.3672 1.5938 0.59766-0.19531 1.1836-0.48828 1.1406-1.2461-0.042969-0.8125-0.69922-0.74609-1.2617-0.76172-0.84375-0.015625-1.457-0.35156-1.6953-1.1992-0.26172-0.91406 0.26562-1.3594 0.97266-1.7891 1.0586-0.63672 1.0781-1.457 0.10156-2.2109-0.60938-0.46484-1.3164-0.72656-2.0938-0.76172-1.3203-0.058594-1.8086 0.40625-1.4375 1.6758 0.30469 1.0742-0.24219 1.4727-1.0078 1.8438-0.79687 0.38672-1.4453 0.046875-2.0781-0.42578-0.47656-0.35938-0.98828-0.91797-1.5078 0.19531m3.2344-9.1133c-0.22266-0.29688-0.57031-0.48047-0.85938-0.28906-1.2891 0.83984-1.7227 0.16016-1.9844-1.0078-0.097656-0.4375-0.42188-0.77344-0.92188-0.69531-0.51562 0.078126-0.79297 0.43359-0.89844 0.95313-0.3125 1.5586 1.2773 3.3789 2.8789 3.2852 1.1562-0.070313 1.9062-0.89453 1.7852-2.2461m11.242 7.2383c1.3555 0.64062 2.7109 0.42578 3.4297-0.55469 0.32812-0.44922 0.50391-0.94141 0.097656-1.4219-0.39062-0.45312-0.87109-0.33594-1.2656-0.015625-0.91016 0.75391-1.4844 0.57422-1.8633-0.53125-0.17578-0.51562-0.61328-0.73828-1.1328-0.51172-0.49219 0.21484-0.65625 0.65234-0.55078 1.1719 0.14844 0.72266 0.49609 1.3203 1.2852 1.8633z"/>
  <path d="m41.035 11.355c-0.35547-1.9141-0.82422-3.6953-0.125-5.5391 0.66016-1.7422 1.8867-2.7031 3.707-2.7148 1.832-0.011718 3.1328 0.89453 3.6953 2.6914 0.28906 0.92969 0.42578 1.9023 0.64453 2.9297 0.875-0.23047 1.6797-0.46875 2.4922-0.64062 2.0391-0.42969 3.9609 0.52344 4.6641 2.2773 0.75781 1.8867 0.097657 3.8867-1.7227 5.0273-2.2578 1.4219-4.8203 1.8203-7.4141 2.0781-0.375 0.039062-0.75391 0.011718-1.1289 0.035156-2.4609 0.16406-2.4883 0.17578-3.4297-2.1758-0.50391-1.2539-0.90625-2.5625-1.3828-3.9688z"/>
  <path d="m18.445 9.6562c0.64063-2.1523 2.2188-3.4336 3.9727-3.3164 1.832 0.12109 3.3242 1.5156 3.6406 3.5781 0.54688 3.6016-0.66406 6.8789-2.0156 10.117-0.1875 0.45312-0.57422 0.5625-1.0352 0.57031-2.7461 0.050781-5.4609-0.11719-8.1172-0.88672-0.82812-0.24219-1.5625-0.66406-2.2539-1.1562-1.5508-1.1094-2.1797-3.1875-1.4922-4.8984 0.67188-1.6719 2.4453-2.6055 4.4102-2.2422 0.81641 0.15234 1.6055 0.46875 2.4609 0.72656 0.47266-0.78516 0.125-1.6445 0.42969-2.4922z"/>
  <path d="m84.855 96.855c-3.1602-0.16797-5.2266-1.9961-7.1016-4.1289-0.99609-1.1328-1.9023-2.3633-3.1016-3.3008-1.3984-1.0898-2.9609-1.4297-4.6523-0.75391-1.3984 0.5625-2.1992 1.582-2.2266 3.1367-0.007813 0.5625 0.023437 1.1367-0.26563 1.6562-0.40625 0.73047-1.0156 1.1406-1.8555 1.0312-0.86328-0.10547-1.2969-0.69922-1.4414-1.5234-0.74219-4.2188 2.4219-8.0508 6.6914-8.2656 3.1797-0.16016 5.6836 1.0547 7.75 3.3633 0.91016 1.0195 1.8125 2.0508 2.7539 3.0508 0.99219 1.0508 2.1484 1.8867 3.6094 2.0898 2.8945 0.39453 4.6914-1.2031 4.9102-4.4102 0.074219-1.1484 0.26953-2.1133 1.6211-2.207 1.1445-0.078125 1.9375 0.94922 2 2.4453 0.21484 4.8828-3.5039 8.2734-8.6914 7.8164z"/>
  <path d="m79.32 24.367c-0.35547-1.9141-0.82031-3.6953-0.125-5.5352 0.66016-1.7422 1.8867-2.7031 3.707-2.7148 1.8281-0.011719 3.1328 0.89453 3.6953 2.6914 0.28906 0.92969 0.42578 1.9023 0.64453 2.9297 0.875-0.23047 1.6797-0.46875 2.4883-0.64062 2.0391-0.42969 3.9609 0.52344 4.6641 2.2773 0.75781 1.8867 0.097657 3.8867-1.7227 5.0273-2.2578 1.4219-4.8203 1.8203-7.4141 2.0781-0.375 0.039062-0.75391 0.011719-1.1289 0.035156-2.4609 0.16406-2.4883 0.17578-3.4297-2.1758-0.49609-1.2578-0.90234-2.5703-1.3789-3.9727z"/>
 </g>
<text x="0.0" y="117.5" font-size="5.0" font-weight="bold" font-family="Arbeit Regular, Helvetica, Arial-Unicode, Arial, Sans-serif" fill="#000000">Created by Mohamed Mb</text><text x="0.0" y="122.5" font-size="5.0" font-weight="bold" font-family="Arbeit Regular, Helvetica, Arial-Unicode, Arial, Sans-serif" fill="#000000">from Noun Project</text></svg>