<svg xmlns="http://www.w3.org/2000/svg" version="1.1" viewBox="-5.0 -10.0 110.0 135.0">
 <g>
  <path d="m76.031 48.984c-1.8438-1.1719-4.5312 0.875-5.9219 2.1562 0.1875-4.0938 0.4375-17.281-4.2188-21.875 0.23438-1.6875 1.5625-11.406 0.21875-15.328-0.066406-0.20312-0.27344-0.33203-0.48438-0.29688-0.11719 0.039063-0.21484 0.125-0.27344 0.23438-0.054687 0.11328-0.0625 0.24219-0.023437 0.35938 1.0781 3.3438 0.15625 11.547-0.1875 14.25-1.7617-1.5-3.793-2.6562-5.9844-3.4062 2.2812-4.8594 0.65625-10.938 0.57812-11.125-0.03125-0.11719-0.10938-0.21484-0.21484-0.27344-0.10547-0.058594-0.23047-0.074219-0.34766-0.039063-0.24219 0.070313-0.38672 0.31641-0.32812 0.5625 0 0 1.5625 6.0312-0.57812 10.594-0.98438-0.28125-1.9961-0.47266-3.0156-0.5625 0.26562-4.3594 1.2812-11.641 1.2812-11.719 0.023438-0.12109-0.007812-0.25-0.082031-0.35156-0.074219-0.097656-0.18359-0.16406-0.30859-0.17969-0.25391-0.027344-0.48438 0.15234-0.51562 0.40625 0 0.5-1.7031 12.172-1.2812 14.734s1.0469 4.1094 3.4688 5.2031c0.39844 0.12109 0.70703 0.42969 0.82812 0.82812-0.007813 0.28906-0.16016 0.55469-0.40625 0.70312-0.51172 0.29688-1.1445 0.29688-1.6562 0-0.19531-0.10547-0.43359-0.058594-0.57812 0.10938-0.13672 0.17578-0.13672 0.41797 0 0.59375 0.64844 0.66406 1.0312 1.543 1.0781 2.4688-0.046875 0.18359-0.12891 0.35938-0.23438 0.51562v0.078125c-0.0625 0.074219-0.13672 0.13672-0.21875 0.1875l-0.20312 0.14062c-0.94922 0.68359-2.1914 0.80469-3.25 0.3125-0.42188-0.39062-4.0312-4-4.4062-14.062 0-0.078125-0.82812-7.7188-0.3125-10.016 0.058594-0.24219-0.085937-0.48438-0.32812-0.54688-0.11719-0.039063-0.24219-0.023437-0.34766 0.039063-0.10547 0.0625-0.17969 0.16797-0.19922 0.28906-0.51562 2.2344 0.10938 8.75 0.25 10.094-10.562 9.5938-9.7812 24.234-9.2969 32.984 0.15625 1.9414 0.15625 3.8867 0 5.8281-0.8125 6.0938-7.9688 15.438-11.156 16.562-2.4219 0.84375-4.1094 2.4219-4.2031 3.9219-0.007813 1.0039 0.61719 1.9062 1.5625 2.25 1.8828 0.95312 4.082 1.0586 6.0469 0.28125 3.7188-1.4219 6.5469-5.5 8.1406-8.375-0.42188 2.9531-0.67188 7.1406 0.79688 9.2031 0.49609 0.73047 1.293 1.1992 2.1719 1.2812h0.29688c0.57812-0.011719 1.1328-0.23438 1.5625-0.625 1.7188-1.5625 1.6875-5.6719 1.5625-8.9844-0.058594-1.1797 0-2.3633 0.17188-3.5312 0.26562 1.2188 0.41797 2.457 0.45312 3.7031 0.3125 3.7812 0.6875 8.4688 3.4531 8.4688 0.87109 0.03125 1.7148-0.30469 2.3281-0.92188 1.125-1.2188 0.95312-3.4062 0.78125-5.5156 0-0.73438-0.078125-1.4219-0.078125-2.0625 0-1.1562-0.09375-4.2656-0.20312-8.2188-0.20312-7.0312-0.48438-16.672-0.4375-21.344 0.039062-3.2891 0.49219-6.5586 1.3438-9.7344 1.2031 0.38672 2.5195 0.20703 3.5781-0.48438h0.10938c0.28125 1.8281 0.5625 6.25 0.6875 8.9062l-0.375-0.3125c-0.09375-0.085938-0.21875-0.125-0.34375-0.10938-0.13281 0.007813-0.25391 0.078125-0.32812 0.1875-2.1406 2.8281-1.3906 8.6562-1.2188 9.875-0.88672 1.0586-1.5273 2.3047-1.875 3.6406-0.46875 2.1719 2.2656 4.7969 3.125 5.4844-0.10938 3.875-0.28125 20.312 3.5625 20.578 0.61328 0.066406 1.2266-0.13672 1.6719-0.5625 1.6719-1.5625 1.5625-5.9375 1.5625-9.125-0.046875-0.73828-0.046875-1.4805 0-2.2188v-0.6875c0.15625-1.2969 0.15625-1.2969 1.7188-1.25 0.4375 0.46875 0.39062 2.5625 0.3125 4.4219-0.09375 3.0312-0.20312 6.4688 1.1875 7.8125 0.40625 0.42969 0.97266 0.67188 1.5625 0.67188s1.1562-0.24219 1.5625-0.67188c2.7969-3.125 1.5625-16.688 1.3906-18.906 1.0156-0.65625 4.3281-2.8594 4.4688-4.7969 0.125-1.0195-0.16406-2.0508-0.79688-2.8594 0.98438-1.9375 3.6094-8.4375 1.3438-9.8438zm-10.078 12.953c0.57812 0 1.0781 0.26562 1.0781 0.875 0 0.54688-0.33594 1.0352-0.84375 1.2344 0 0.48438 0 0.96875 0.32812 1.1406s0.95312-0.125 1.5625-0.39062c0 0 0.15625 0 0.10938 0.14062-0.39844 0.59766-1.1367 0.86719-1.8281 0.67188-0.13672-0.074219-0.25391-0.19141-0.32812-0.32812-0.5 0.73438-1.5625 0.40625-2.1875-0.34375 0 0 0-0.17188 0.09375-0.14062 1.3438 0.73438 1.8438 0.57812 1.8281-0.84375-0.48828-0.21094-0.80469-0.6875-0.8125-1.2188-0.078125-0.53125 0.40625-0.79688 1-0.79688zm-3.7344-6.1406c1.1719 0 2.125 1.375 2.125 3.125s-0.95312 3.125-2.125 3.125-2.1094-1.375-2.1094-3.125 0.95312-3.125 2.1094-3.125zm-5 0.8125s0-6.125 0.46875-6.25 0.71875 0.95312 0.71875 0.95312c0.15625 0.42188 1.375 3.2188 0.82812 3.7188s-2.0156 1.5781-2.0156 1.5781zm7.125 11.906c-3.7656 0.14062-5.3438-1.3125-5.5156-1.5625 3.6719 1.9062 9.7969 0.34375 10.219 0.25-0.09375 0.1875-0.96875 1.1406-4.7031 1.3125zm5.3281-6.6406c-1.1562 0-2.125-1.375-2.125-3.125s0.96875-3.125 2.125-3.125 2.1094 1.3906 2.1094 3.125-0.9375 3.125-2.1094 3.125zm3.8438-4.2031s-1.0938-1.5625-1.4531-2.1406 1.6406-2.9375 1.9219-3.2969c0 0 0.5625-1 0.96875-0.6875s-1.4375 6.125-1.4375 6.125z"/>
  <path d="m69.672 57.25c-0.42188 0-0.76562 0.65625-0.76562 1.4531s0.34375 1.4531 0.76562 1.4531 0.76562-0.65625 0.76562-1.4531-0.34375-1.4531-0.76562-1.4531z"/>
  <path d="m63 58.875c0 1.9375-1.5312 1.9375-1.5312 0s1.5312-1.9375 1.5312 0"/>
 </g>
<text x="0.0" y="117.5" font-size="5.0" font-weight="bold" font-family="Arbeit Regular, Helvetica, Arial-Unicode, Arial, Sans-serif" fill="#000000">Created by Bondan siswanto</text><text x="0.0" y="122.5" font-size="5.0" font-weight="bold" font-family="Arbeit Regular, Helvetica, Arial-Unicode, Arial, Sans-serif" fill="#000000">from Noun Project</text></svg>