<svg width="1152" height="576" viewBox="0 0 1152 576" fill="none" xmlns="http://www.w3.org/2000/svg">
<path d="M254.76 306.78C241.327 306.78 231.447 303.357 225.12 296.51C218.88 289.663 215.76 280.65 215.76 269.47C215.76 258.203 217.667 247.977 221.48 238.79C225.38 229.517 231.144 221.933 238.77 216.04C246.397 210.06 254.63 207.07 263.47 207.07C272.397 207.07 279.374 209.237 284.4 213.57C289.514 217.817 292.07 223.58 292.07 230.86C292.07 238.053 289.817 244.033 285.31 248.8C280.89 253.567 275.69 255.95 269.71 255.95C263.73 255.95 259.094 254.65 255.8 252.05C252.507 249.363 250.86 246.547 250.86 243.6C250.86 240.567 252.03 238.227 254.37 236.58C256.797 234.847 260.307 233.98 264.9 233.98C263.774 235.107 263.21 236.623 263.21 238.53C263.21 240.35 263.774 241.953 264.9 243.34C266.027 244.727 267.76 245.42 270.1 245.42C272.44 245.42 274.78 244.207 277.12 241.78C279.46 239.267 280.63 235.973 280.63 231.9C280.63 227.827 279.374 224.577 276.86 222.15C274.434 219.723 270.967 218.51 266.46 218.51C260.567 218.51 255.194 220.893 250.34 225.66C245.574 230.427 241.934 236.493 239.42 243.86C236.907 251.227 235.65 258.983 235.65 267.13C235.65 274.15 237.167 280.347 240.2 285.72C241.76 288.493 244.057 290.703 247.09 292.35C250.21 293.997 253.85 294.82 258.01 294.82C265.117 294.82 271.964 292.567 278.55 288.06C285.137 283.467 290.684 277.573 295.19 270.38L299.61 278.31C294.497 286.63 288.084 293.477 280.37 298.85C272.657 304.137 264.12 306.78 254.76 306.78ZM361.776 306.65C353.802 306.65 348.516 303.877 345.916 298.33C341.409 303.963 335.602 306.78 328.496 306.78C321.476 306.78 315.539 304.397 310.686 299.63C305.919 294.863 303.536 288.58 303.536 280.78C303.536 269.427 306.872 260.37 313.546 253.61C320.219 246.85 328.669 243.47 338.896 243.47C339.156 243.47 339.416 243.47 339.676 243.47C344.009 243.47 347.996 244.207 351.636 245.68C353.976 244.207 356.792 243.47 360.086 243.47C363.466 243.47 365.892 243.903 367.366 244.77C366.586 251.183 365.762 257.51 364.896 263.75C364.029 269.903 363.422 274.28 363.076 276.88C362.296 282.773 361.906 287.02 361.906 289.62C361.906 293.087 363.292 294.82 366.066 294.82C368.232 294.82 370.529 293.39 372.956 290.53C375.382 287.583 377.506 282.99 379.326 276.75C381.839 279.003 383.572 281.517 384.526 284.29C382.012 292.523 378.632 298.33 374.386 301.71C370.139 305.003 365.936 306.65 361.776 306.65ZM340.846 253.61C335.299 253.61 330.879 255.733 327.586 259.98C324.379 264.14 322.472 270.38 321.866 278.7C321.779 279.48 321.736 280.217 321.736 280.91C321.736 285.157 322.732 288.537 324.726 291.05C326.806 293.563 329.449 294.82 332.656 294.82C338.116 294.82 342.232 290.963 345.006 283.25L348.126 255.17C345.612 254.13 343.186 253.61 340.846 253.61ZM417.526 215.52C417.526 216.04 416.356 225.357 414.016 243.47H433.126V253.48H412.716L412.326 256.73C422.466 265.223 427.536 274.497 427.536 284.55C427.536 292.437 425.5 298.113 421.426 301.58C417.44 305.047 412.63 306.78 406.996 306.78C401.363 306.78 397.246 305.307 394.646 302.36C392.046 299.327 390.746 295.687 390.746 291.44C390.746 290.487 390.833 289.447 391.006 288.32L395.036 253.74L394.516 253.48H383.986C383.9 252.613 383.856 251.227 383.856 249.32C383.856 247.327 384.246 245.377 385.026 243.47H396.206L400.366 208.11C402.186 207.417 404.613 207.07 407.646 207.07C414.233 207.07 417.526 209.887 417.526 215.52ZM418.826 284.42C418.826 278.44 416.226 272.547 411.026 266.74C409.466 279.653 408.686 287.107 408.686 289.1C408.686 293 409.943 294.95 412.456 294.95C414.276 294.95 415.793 294.127 417.006 292.48C418.22 290.747 418.826 288.06 418.826 284.42ZM484.574 341.75C479.721 341.75 475.561 340.233 472.094 337.2C468.714 334.253 467.024 329.703 467.024 323.55C467.024 317.397 469.971 311.633 475.864 306.26C465.377 304.787 457.664 300.757 452.724 294.17C447.784 287.497 445.314 278.917 445.314 268.43C445.314 257.857 447.221 247.977 451.034 238.79C454.934 229.517 460.697 221.933 468.324 216.04C475.951 210.06 484.184 207.07 493.024 207.07C501.951 207.07 508.927 209.237 513.954 213.57C519.067 217.817 521.624 223.667 521.624 231.12C521.624 238.573 519.414 244.597 514.994 249.19C510.574 253.697 505.331 255.95 499.264 255.95C493.284 255.95 488.647 254.65 485.354 252.05C482.061 249.363 480.414 246.547 480.414 243.6C480.414 240.567 481.584 238.227 483.924 236.58C486.351 234.847 489.861 233.98 494.454 233.98C493.327 235.107 492.764 236.623 492.764 238.53C492.764 240.35 493.327 241.953 494.454 243.34C495.581 244.727 497.271 245.42 499.524 245.42C501.864 245.42 504.031 244.207 506.024 241.78C508.104 239.353 509.144 236.06 509.144 231.9C509.144 227.653 508.061 224.36 505.894 222.02C503.727 219.68 500.434 218.51 496.014 218.51C490.121 218.51 484.747 220.893 479.894 225.66C475.127 230.427 471.487 236.493 468.974 243.86C466.461 251.227 465.204 258.983 465.204 267.13C465.204 274.15 466.721 280.347 469.754 285.72C471.314 288.493 473.611 290.703 476.644 292.35C479.764 293.997 482.797 294.82 485.744 294.82C488.777 294.82 491.204 294.69 493.024 294.43L496.274 266.09H514.474L511.614 287.28C520.974 282.34 527.127 276.967 530.074 271.16L535.144 278.31C529.511 286.977 521.191 293.563 510.184 298.07L508.494 312.11C507.801 318.437 506.544 323.723 504.724 327.97C502.904 332.217 500.737 335.25 498.224 337.07C495.797 338.977 493.544 340.233 491.464 340.84C489.384 341.447 487.087 341.75 484.574 341.75ZM478.594 323.16C478.594 324.72 479.071 326.063 480.024 327.19C480.977 328.317 482.061 328.88 483.274 328.88C484.574 328.88 485.571 328.663 486.264 328.23C486.957 327.797 487.694 326.67 488.474 324.85C489.254 323.03 489.861 320.473 490.294 317.18L491.594 306.52C482.927 311.893 478.594 317.44 478.594 323.16ZM598.569 306.65C590.595 306.65 585.309 303.877 582.709 298.33C578.202 303.963 572.395 306.78 565.289 306.78C558.269 306.78 552.332 304.397 547.479 299.63C542.712 294.863 540.329 288.58 540.329 280.78C540.329 269.427 543.665 260.37 550.339 253.61C557.012 246.85 565.462 243.47 575.689 243.47C575.949 243.47 576.209 243.47 576.469 243.47C580.802 243.47 584.789 244.207 588.429 245.68C590.769 244.207 593.585 243.47 596.879 243.47C600.259 243.47 602.685 243.903 604.159 244.77C603.379 251.183 602.555 257.51 601.689 263.75C600.822 269.903 600.215 274.28 599.869 276.88C599.089 282.773 598.699 287.02 598.699 289.62C598.699 293.087 600.085 294.82 602.859 294.82C605.025 294.82 607.322 293.39 609.749 290.53C612.175 287.583 614.299 282.99 616.119 276.75C618.632 279.003 620.365 281.517 621.319 284.29C618.805 292.523 615.425 298.33 611.179 301.71C606.932 305.003 602.729 306.65 598.569 306.65ZM577.639 253.61C572.092 253.61 567.672 255.733 564.379 259.98C561.172 264.14 559.265 270.38 558.659 278.7C558.572 279.48 558.529 280.217 558.529 280.91C558.529 285.157 559.525 288.537 561.519 291.05C563.599 293.563 566.242 294.82 569.449 294.82C574.909 294.82 579.025 290.963 581.799 283.25L584.919 255.17C582.405 254.13 579.979 253.61 577.639 253.61ZM642.359 306.91C637.073 306.91 632.913 305.437 629.879 302.49C626.846 299.457 625.329 295.34 625.329 290.14C625.329 288.753 627.669 268.17 632.349 228.39C633.563 218.163 636.813 211.707 642.099 209.02C644.526 207.72 647.429 207.07 650.809 207.07C662.249 207.07 667.969 212.357 667.969 222.93C667.969 223.797 667.926 224.707 667.839 225.66C666.973 237.273 659.693 249.103 645.999 261.15C645.566 265.397 645.089 269.513 644.569 273.5C643.529 282.427 643.009 287.367 643.009 288.32C643.009 292.827 644.959 295.08 648.859 295.08C653.106 295.08 657.049 292.653 660.689 287.8C664.416 282.86 667.276 276.577 669.269 268.95C670.049 269.21 671.133 269.947 672.519 271.16C673.906 272.287 674.859 273.283 675.379 274.15C673.993 281.343 670.873 288.233 666.019 294.82C663.593 298.2 660.516 300.973 656.789 303.14C652.543 305.653 647.733 306.91 642.359 306.91ZM647.429 248.15C655.403 239.397 659.389 231.553 659.389 224.62C659.389 220.46 657.829 218.38 654.709 218.38C652.716 218.553 651.373 219.853 650.679 222.28C650.073 224.707 649.466 228.65 648.859 234.11C648.339 239.57 647.993 242.95 647.819 244.25L647.429 248.15ZM695.096 306.91C689.809 306.91 685.649 305.437 682.616 302.49C679.582 299.457 678.066 295.34 678.066 290.14C678.066 288.753 680.406 268.17 685.086 228.39C686.299 218.163 689.549 211.707 694.836 209.02C697.262 207.72 700.166 207.07 703.546 207.07C714.986 207.07 720.706 212.357 720.706 222.93C720.706 223.797 720.662 224.707 720.576 225.66C719.709 237.273 712.429 249.103 698.736 261.15C698.302 265.397 697.826 269.513 697.306 273.5C696.266 282.427 695.746 287.367 695.746 288.32C695.746 292.827 697.696 295.08 701.596 295.08C705.842 295.08 709.786 292.653 713.426 287.8C717.152 282.86 720.012 276.577 722.006 268.95C722.786 269.21 723.869 269.947 725.256 271.16C726.642 272.287 727.596 273.283 728.116 274.15C726.729 281.343 723.609 288.233 718.756 294.82C716.329 298.2 713.252 300.973 709.526 303.14C705.279 305.653 700.469 306.91 695.096 306.91ZM700.166 248.15C708.139 239.397 712.126 231.553 712.126 224.62C712.126 220.46 710.566 218.38 707.446 218.38C705.452 218.553 704.109 219.853 703.416 222.28C702.809 224.707 702.202 228.65 701.596 234.11C701.076 239.57 700.729 242.95 700.556 244.25L700.166 248.15ZM788.262 306.65C780.289 306.65 775.002 303.877 772.402 298.33C767.895 303.963 762.089 306.78 754.982 306.78C747.962 306.78 742.025 304.397 737.172 299.63C732.405 294.863 730.022 288.58 730.022 280.78C730.022 269.427 733.359 260.37 740.032 253.61C746.705 246.85 755.155 243.47 765.382 243.47C765.642 243.47 765.902 243.47 766.162 243.47C770.495 243.47 774.482 244.207 778.122 245.68C780.462 244.207 783.279 243.47 786.572 243.47C789.952 243.47 792.379 243.903 793.852 244.77C793.072 251.183 792.249 257.51 791.382 263.75C790.515 269.903 789.909 274.28 789.562 276.88C788.782 282.773 788.392 287.02 788.392 289.62C788.392 293.087 789.779 294.82 792.552 294.82C794.719 294.82 797.015 293.39 799.442 290.53C801.869 287.583 803.992 282.99 805.812 276.75C808.325 279.003 810.059 281.517 811.012 284.29C808.499 292.523 805.119 298.33 800.872 301.71C796.625 305.003 792.422 306.65 788.262 306.65ZM767.332 253.61C761.785 253.61 757.365 255.733 754.072 259.98C750.865 264.14 748.959 270.38 748.352 278.7C748.265 279.48 748.222 280.217 748.222 280.91C748.222 285.157 749.219 288.537 751.212 291.05C753.292 293.563 755.935 294.82 759.142 294.82C764.602 294.82 768.719 290.963 771.492 283.25L774.612 255.17C772.099 254.13 769.672 253.61 767.332 253.61ZM852.983 260.5C852.983 256.687 851.206 254.78 847.653 254.78C844.186 254.78 841.413 257.033 839.333 261.54C848.693 268.907 853.373 277.183 853.373 286.37C853.373 293.043 851.509 298.113 847.783 301.58C844.056 305.047 839.376 306.78 833.743 306.78C828.109 306.78 823.993 305.047 821.393 301.58C818.793 298.027 817.493 293.563 817.493 288.19C817.493 286.543 817.536 285.33 817.623 284.55L822.173 244.9C825.293 243.947 828.456 243.47 831.663 243.47C836.949 243.47 839.593 245.42 839.593 249.32V249.58C843.059 245.507 847.479 243.47 852.853 243.47C856.753 243.47 859.786 244.38 861.953 246.2C864.119 247.933 865.203 250.273 865.203 253.22C865.203 256.167 864.076 258.593 861.823 260.5C859.656 262.32 856.796 263.23 853.243 263.23C853.069 263.23 852.896 263.23 852.723 263.23C852.896 262.277 852.983 261.367 852.983 260.5ZM844.923 285.72C844.923 280.693 842.323 275.667 837.123 270.64C835.563 283.12 834.783 289.403 834.783 289.49C834.783 293.13 836.256 294.95 839.203 294.95C843.016 294.95 844.923 291.873 844.923 285.72ZM903.567 344.61C898.627 344.61 894.38 343.093 890.827 340.06C887.274 337.113 885.497 332.78 885.497 327.06C885.497 320.04 889.05 313.193 896.157 306.52C891.13 306.087 887.1 304.44 884.067 301.58C881.034 298.72 879.517 294.69 879.517 289.49C879.517 287.063 879.82 283.423 880.427 278.57C881.034 273.717 881.684 268.473 882.377 262.84C883.07 257.207 883.807 251.227 884.587 244.9C887.274 243.947 889.744 243.47 891.997 243.47C894.25 243.47 895.94 243.557 897.067 243.73C898.194 243.903 899.277 244.553 900.317 245.68C901.357 246.807 901.877 248.41 901.877 250.49L897.587 283.64C897.414 285.027 897.327 285.98 897.327 286.5C897.327 291.613 899.667 294.17 904.347 294.17C908.594 294.17 912.06 292.177 914.747 288.19C915.007 286.197 915.657 280.477 916.697 271.03C917.737 261.497 918.604 254.087 919.297 248.8C920.077 247.153 921.68 245.853 924.107 244.9C926.62 243.947 928.657 243.47 930.217 243.47C932.99 243.47 935.504 243.817 937.757 244.51L931.647 292.48C941.787 294.3 947.854 301.277 949.847 313.41C949.5 315.057 947.854 317.657 944.907 321.21C943.174 310.377 938.407 303.79 930.607 301.45L928.527 317.7C927.574 325.5 925.104 331.913 921.117 336.94C917.13 342.053 911.28 344.61 903.567 344.61ZM895.637 324.59C895.637 327.45 896.33 329.573 897.717 330.96C899.104 332.347 900.924 333.04 903.177 333.04C905.517 333.04 907.294 332.087 908.507 330.18C909.72 328.273 910.674 324.46 911.367 318.74L913.057 304.44C901.704 310.333 895.897 317.05 895.637 324.59Z" fill="#004343"/>
</svg>
