<svg width="1152" height="576" viewBox="0 0 1152 576" fill="none" xmlns="http://www.w3.org/2000/svg">
<path d="M260.092 306.78C246.659 306.78 236.779 303.357 230.452 296.51C224.212 289.663 221.092 280.65 221.092 269.47C221.092 258.203 222.999 247.977 226.812 238.79C230.712 229.517 236.476 221.933 244.102 216.04C251.729 210.06 259.962 207.07 268.802 207.07C277.729 207.07 284.706 209.237 289.732 213.57C294.846 217.817 297.402 223.58 297.402 230.86C297.402 238.053 295.149 244.033 290.642 248.8C286.222 253.567 281.022 255.95 275.042 255.95C269.062 255.95 264.426 254.65 261.132 252.05C257.839 249.363 256.192 246.547 256.192 243.6C256.192 240.567 257.362 238.227 259.702 236.58C262.129 234.847 265.639 233.98 270.232 233.98C269.106 235.107 268.542 236.623 268.542 238.53C268.542 240.35 269.106 241.953 270.232 243.34C271.359 244.727 273.092 245.42 275.432 245.42C277.772 245.42 280.112 244.207 282.452 241.78C284.792 239.267 285.962 235.973 285.962 231.9C285.962 227.827 284.706 224.577 282.192 222.15C279.766 219.723 276.299 218.51 271.792 218.51C265.899 218.51 260.526 220.893 255.672 225.66C250.906 230.427 247.266 236.493 244.752 243.86C242.239 251.227 240.982 258.983 240.982 267.13C240.982 274.15 242.499 280.347 245.532 285.72C247.092 288.493 249.389 290.703 252.422 292.35C255.542 293.997 259.182 294.82 263.342 294.82C270.449 294.82 277.296 292.567 283.882 288.06C290.469 283.467 296.016 277.573 300.522 270.38L304.942 278.31C299.829 286.63 293.416 293.477 285.702 298.85C277.989 304.137 269.452 306.78 260.092 306.78ZM367.108 306.65C359.134 306.65 353.848 303.877 351.248 298.33C346.741 303.963 340.934 306.78 333.828 306.78C326.808 306.78 320.871 304.397 316.018 299.63C311.251 294.863 308.868 288.58 308.868 280.78C308.868 269.427 312.204 260.37 318.878 253.61C325.551 246.85 334.001 243.47 344.228 243.47C344.488 243.47 344.748 243.47 345.008 243.47C349.341 243.47 353.328 244.207 356.968 245.68C359.308 244.207 362.124 243.47 365.418 243.47C368.798 243.47 371.224 243.903 372.698 244.77C371.918 251.183 371.094 257.51 370.228 263.75C369.361 269.903 368.754 274.28 368.408 276.88C367.628 282.773 367.238 287.02 367.238 289.62C367.238 293.087 368.624 294.82 371.398 294.82C373.564 294.82 375.861 293.39 378.288 290.53C380.714 287.583 382.838 282.99 384.658 276.75C387.171 279.003 388.904 281.517 389.858 284.29C387.344 292.523 383.964 298.33 379.718 301.71C375.471 305.003 371.268 306.65 367.108 306.65ZM346.178 253.61C340.631 253.61 336.211 255.733 332.918 259.98C329.711 264.14 327.804 270.38 327.198 278.7C327.111 279.48 327.068 280.217 327.068 280.91C327.068 285.157 328.064 288.537 330.058 291.05C332.138 293.563 334.781 294.82 337.988 294.82C343.448 294.82 347.564 290.963 350.338 283.25L353.458 255.17C350.944 254.13 348.518 253.61 346.178 253.61ZM422.858 215.52C422.858 216.04 421.688 225.357 419.348 243.47H438.458V253.48H418.048L417.658 256.73C427.798 265.223 432.868 274.497 432.868 284.55C432.868 292.437 430.832 298.113 426.758 301.58C422.772 305.047 417.962 306.78 412.328 306.78C406.695 306.78 402.578 305.307 399.978 302.36C397.378 299.327 396.078 295.687 396.078 291.44C396.078 290.487 396.165 289.447 396.338 288.32L400.368 253.74L399.848 253.48H389.318C389.232 252.613 389.188 251.227 389.188 249.32C389.188 247.327 389.578 245.377 390.358 243.47H401.538L405.698 208.11C407.518 207.417 409.945 207.07 412.978 207.07C419.565 207.07 422.858 209.887 422.858 215.52ZM424.158 284.42C424.158 278.44 421.558 272.547 416.358 266.74C414.798 279.653 414.018 287.107 414.018 289.1C414.018 293 415.275 294.95 417.788 294.95C419.608 294.95 421.125 294.127 422.338 292.48C423.552 290.747 424.158 288.06 424.158 284.42ZM489.906 341.75C485.053 341.75 480.893 340.233 477.426 337.2C474.046 334.253 472.356 329.703 472.356 323.55C472.356 317.397 475.303 311.633 481.196 306.26C470.709 304.787 462.996 300.757 458.056 294.17C453.116 287.497 450.646 278.917 450.646 268.43C450.646 257.857 452.553 247.977 456.366 238.79C460.266 229.517 466.029 221.933 473.656 216.04C481.283 210.06 489.516 207.07 498.356 207.07C507.283 207.07 514.259 209.237 519.286 213.57C524.399 217.817 526.956 223.667 526.956 231.12C526.956 238.573 524.746 244.597 520.326 249.19C515.906 253.697 510.663 255.95 504.596 255.95C498.616 255.95 493.979 254.65 490.686 252.05C487.393 249.363 485.746 246.547 485.746 243.6C485.746 240.567 486.916 238.227 489.256 236.58C491.683 234.847 495.193 233.98 499.786 233.98C498.659 235.107 498.096 236.623 498.096 238.53C498.096 240.35 498.659 241.953 499.786 243.34C500.913 244.727 502.603 245.42 504.856 245.42C507.196 245.42 509.363 244.207 511.356 241.78C513.436 239.353 514.476 236.06 514.476 231.9C514.476 227.653 513.393 224.36 511.226 222.02C509.059 219.68 505.766 218.51 501.346 218.51C495.453 218.51 490.079 220.893 485.226 225.66C480.459 230.427 476.819 236.493 474.306 243.86C471.793 251.227 470.536 258.983 470.536 267.13C470.536 274.15 472.053 280.347 475.086 285.72C476.646 288.493 478.943 290.703 481.976 292.35C485.096 293.997 488.129 294.82 491.076 294.82C494.109 294.82 496.536 294.69 498.356 294.43L501.606 266.09H519.806L516.946 287.28C526.306 282.34 532.459 276.967 535.406 271.16L540.476 278.31C534.843 286.977 526.523 293.563 515.516 298.07L513.826 312.11C513.133 318.437 511.876 323.723 510.056 327.97C508.236 332.217 506.069 335.25 503.556 337.07C501.129 338.977 498.876 340.233 496.796 340.84C494.716 341.447 492.419 341.75 489.906 341.75ZM483.926 323.16C483.926 324.72 484.403 326.063 485.356 327.19C486.309 328.317 487.393 328.88 488.606 328.88C489.906 328.88 490.903 328.663 491.596 328.23C492.289 327.797 493.026 326.67 493.806 324.85C494.586 323.03 495.193 320.473 495.626 317.18L496.926 306.52C488.259 311.893 483.926 317.44 483.926 323.16ZM603.901 306.65C595.927 306.65 590.641 303.877 588.041 298.33C583.534 303.963 577.727 306.78 570.621 306.78C563.601 306.78 557.664 304.397 552.811 299.63C548.044 294.863 545.661 288.58 545.661 280.78C545.661 269.427 548.997 260.37 555.671 253.61C562.344 246.85 570.794 243.47 581.021 243.47C581.281 243.47 581.541 243.47 581.801 243.47C586.134 243.47 590.121 244.207 593.761 245.68C596.101 244.207 598.917 243.47 602.211 243.47C605.591 243.47 608.017 243.903 609.491 244.77C608.711 251.183 607.887 257.51 607.021 263.75C606.154 269.903 605.547 274.28 605.201 276.88C604.421 282.773 604.031 287.02 604.031 289.62C604.031 293.087 605.417 294.82 608.191 294.82C610.357 294.82 612.654 293.39 615.081 290.53C617.507 287.583 619.631 282.99 621.451 276.75C623.964 279.003 625.697 281.517 626.651 284.29C624.137 292.523 620.757 298.33 616.511 301.71C612.264 305.003 608.061 306.65 603.901 306.65ZM582.971 253.61C577.424 253.61 573.004 255.733 569.711 259.98C566.504 264.14 564.597 270.38 563.991 278.7C563.904 279.48 563.861 280.217 563.861 280.91C563.861 285.157 564.857 288.537 566.851 291.05C568.931 293.563 571.574 294.82 574.781 294.82C580.241 294.82 584.357 290.963 587.131 283.25L590.251 255.17C587.737 254.13 585.311 253.61 582.971 253.61ZM647.691 306.91C642.405 306.91 638.245 305.437 635.211 302.49C632.178 299.457 630.661 295.34 630.661 290.14C630.661 288.753 633.001 268.17 637.681 228.39C638.895 218.163 642.145 211.707 647.431 209.02C649.858 207.72 652.761 207.07 656.141 207.07C667.581 207.07 673.301 212.357 673.301 222.93C673.301 223.797 673.258 224.707 673.171 225.66C672.305 237.273 665.025 249.103 651.331 261.15C650.898 265.397 650.421 269.513 649.901 273.5C648.861 282.427 648.341 287.367 648.341 288.32C648.341 292.827 650.291 295.08 654.191 295.08C658.438 295.08 662.381 292.653 666.021 287.8C669.748 282.86 672.608 276.577 674.601 268.95C675.381 269.21 676.465 269.947 677.851 271.16C679.238 272.287 680.191 273.283 680.711 274.15C679.325 281.343 676.205 288.233 671.351 294.82C668.925 298.2 665.848 300.973 662.121 303.14C657.875 305.653 653.065 306.91 647.691 306.91ZM652.761 248.15C660.735 239.397 664.721 231.553 664.721 224.62C664.721 220.46 663.161 218.38 660.041 218.38C658.048 218.553 656.705 219.853 656.011 222.28C655.405 224.707 654.798 228.65 654.191 234.11C653.671 239.57 653.325 242.95 653.151 244.25L652.761 248.15ZM700.428 306.91C695.141 306.91 690.981 305.437 687.948 302.49C684.914 299.457 683.398 295.34 683.398 290.14C683.398 288.753 685.738 268.17 690.418 228.39C691.631 218.163 694.881 211.707 700.168 209.02C702.594 207.72 705.498 207.07 708.878 207.07C720.318 207.07 726.038 212.357 726.038 222.93C726.038 223.797 725.994 224.707 725.908 225.66C725.041 237.273 717.761 249.103 704.068 261.15C703.634 265.397 703.158 269.513 702.638 273.5C701.598 282.427 701.078 287.367 701.078 288.32C701.078 292.827 703.028 295.08 706.928 295.08C711.174 295.08 715.118 292.653 718.758 287.8C722.484 282.86 725.344 276.577 727.338 268.95C728.118 269.21 729.201 269.947 730.588 271.16C731.974 272.287 732.928 273.283 733.448 274.15C732.061 281.343 728.941 288.233 724.088 294.82C721.661 298.2 718.584 300.973 714.858 303.14C710.611 305.653 705.801 306.91 700.428 306.91ZM705.498 248.15C713.471 239.397 717.458 231.553 717.458 224.62C717.458 220.46 715.898 218.38 712.778 218.38C710.784 218.553 709.441 219.853 708.748 222.28C708.141 224.707 707.534 228.65 706.928 234.11C706.408 239.57 706.061 242.95 705.888 244.25L705.498 248.15ZM759.924 276.88C765.297 275.753 769.284 273.587 771.884 270.38C774.571 267.173 775.914 264.097 775.914 261.15C775.914 258.117 775.091 256.08 773.444 255.04C771.884 253.913 770.151 253.35 768.244 253.35C764.171 253.35 760.574 255.647 757.454 260.24C754.421 264.747 752.904 270.163 752.904 276.49C752.904 282.73 754.377 287.41 757.324 290.53C760.357 293.563 764.084 295.08 768.504 295.08C775.004 295.08 781.244 292.827 787.224 288.32C793.204 283.813 798.057 277.92 801.784 270.64C803.691 272.46 805.424 274.713 806.984 277.4C804.124 283.9 799.054 290.27 791.774 296.51C788.134 299.543 783.801 302.013 778.774 303.92C773.834 305.827 768.721 306.78 763.434 306.78C754.767 306.78 747.921 304.137 742.894 298.85C737.521 293.13 734.834 285.807 734.834 276.88C734.834 267.953 738.171 260.153 744.844 253.48C751.604 246.807 759.664 243.47 769.024 243.47C775.697 243.47 781.114 244.943 785.274 247.89C789.434 250.75 791.557 254.65 791.644 259.59C791.644 266.263 788.957 271.68 783.584 275.84C778.297 280 771.017 282.903 761.744 284.55L759.924 276.88ZM847.651 260.5C847.651 256.687 845.874 254.78 842.321 254.78C838.854 254.78 836.081 257.033 834.001 261.54C843.361 268.907 848.041 277.183 848.041 286.37C848.041 293.043 846.177 298.113 842.451 301.58C838.724 305.047 834.044 306.78 828.411 306.78C822.777 306.78 818.661 305.047 816.061 301.58C813.461 298.027 812.161 293.563 812.161 288.19C812.161 286.543 812.204 285.33 812.291 284.55L816.841 244.9C819.961 243.947 823.124 243.47 826.331 243.47C831.617 243.47 834.261 245.42 834.261 249.32V249.58C837.727 245.507 842.147 243.47 847.521 243.47C851.421 243.47 854.454 244.38 856.621 246.2C858.787 247.933 859.871 250.273 859.871 253.22C859.871 256.167 858.744 258.593 856.491 260.5C854.324 262.32 851.464 263.23 847.911 263.23C847.737 263.23 847.564 263.23 847.391 263.23C847.564 262.277 847.651 261.367 847.651 260.5ZM839.591 285.72C839.591 280.693 836.991 275.667 831.791 270.64C830.231 283.12 829.451 289.403 829.451 289.49C829.451 293.13 830.924 294.95 833.871 294.95C837.684 294.95 839.591 291.873 839.591 285.72ZM898.235 344.61C893.295 344.61 889.048 343.093 885.495 340.06C881.942 337.113 880.165 332.78 880.165 327.06C880.165 320.04 883.718 313.193 890.825 306.52C885.798 306.087 881.768 304.44 878.735 301.58C875.702 298.72 874.185 294.69 874.185 289.49C874.185 287.063 874.488 283.423 875.095 278.57C875.702 273.717 876.352 268.473 877.045 262.84C877.738 257.207 878.475 251.227 879.255 244.9C881.942 243.947 884.412 243.47 886.665 243.47C888.918 243.47 890.608 243.557 891.735 243.73C892.862 243.903 893.945 244.553 894.985 245.68C896.025 246.807 896.545 248.41 896.545 250.49L892.255 283.64C892.082 285.027 891.995 285.98 891.995 286.5C891.995 291.613 894.335 294.17 899.015 294.17C903.262 294.17 906.728 292.177 909.415 288.19C909.675 286.197 910.325 280.477 911.365 271.03C912.405 261.497 913.272 254.087 913.965 248.8C914.745 247.153 916.348 245.853 918.775 244.9C921.288 243.947 923.325 243.47 924.885 243.47C927.658 243.47 930.172 243.817 932.425 244.51L926.315 292.48C936.455 294.3 942.522 301.277 944.515 313.41C944.168 315.057 942.522 317.657 939.575 321.21C937.842 310.377 933.075 303.79 925.275 301.45L923.195 317.7C922.242 325.5 919.772 331.913 915.785 336.94C911.798 342.053 905.948 344.61 898.235 344.61ZM890.305 324.59C890.305 327.45 890.998 329.573 892.385 330.96C893.772 332.347 895.592 333.04 897.845 333.04C900.185 333.04 901.962 332.087 903.175 330.18C904.388 328.273 905.342 324.46 906.035 318.74L907.725 304.44C896.372 310.333 890.565 317.05 890.305 324.59Z" fill="#642915"/>
</svg>
